<?xml version="1.0" encoding="UTF-8"?>
<svg width="10px" height="6px" viewBox="0 0 10 6" version="1.1" xmlns="http://www.w3.org/2000/svg" xmlns:xlink="http://www.w3.org/1999/xlink">
    <title>Path</title>
    <g id="Page-1" stroke="none" stroke-width="1" fill="none" fill-rule="evenodd">
        <g id="Home-" transform="translate(-278.000000, -116.000000)" fill="#0A0911" fill-rule="nonzero">
            <g id="Group" transform="translate(225.000000, 108.000000)">
                <path d="M61.7087285,8.23872845 L58.1787285,11.7787285 C58.0787285,11.8787285 57.9187285,11.8787285 57.8187285,11.7787285 L54.2987285,8.23872845 C54.1117579,8.03807527 53.8301729,7.95547927 53.5644395,8.02334291 C53.2987062,8.09120655 53.0912066,8.29870618 53.0233429,8.56443954 C52.9554793,8.83017291 53.0380753,9.11175787 53.2387285,9.29872845 L56.7687285,12.8387285 C57.4587285,13.5187285 58.5687285,13.5187285 59.2487285,12.8387285 L62.7787285,9.29872845 C63.0540873,9.0032187 63.0459623,8.54271873 62.7603503,8.25710665 C62.4747382,7.97149458 62.0142382,7.96336959 61.7187285,8.23872845 L61.7087285,8.23872845 Z" id="Path"></path>
            </g>
        </g>
    </g>
</svg>