<?xml version="1.0" encoding="UTF-8"?>
<svg width="68px" height="68px" viewBox="0 0 68 68" version="1.1" xmlns="http://www.w3.org/2000/svg" xmlns:xlink="http://www.w3.org/1999/xlink">
    <title>Group 27</title>
    <defs>
        <circle id="path-1" cx="34" cy="34" r="34"></circle>
    </defs>
    <g id="Page-1" stroke="none" stroke-width="1" fill="none" fill-rule="evenodd">
        <g id="Home-" transform="translate(-501.000000, -1224.000000)">
            <g id="Group-4" transform="translate(442.000000, 1224.000000)">
                <g id="Group-27" transform="translate(59.000000, 0.000000)">
                    <g id="Group-2">
                        <mask id="mask-2" fill="white">
                            <use xlink:href="#path-1"></use>
                        </mask>
                        <use id="Oval" fill="#FE840E" xlink:href="#path-1"></use>
                        <circle id="Oval" fill="#FFFFFF" opacity="0.2" mask="url(#mask-2)" cx="51" cy="59" r="22"></circle>
                    </g>
                    <g id="Group" transform="translate(20.000000, 20.000000)">
                        <polygon id="Path" points="0 0 27.2 0 27.2 27.2 0 27.2"></polygon>
                        <g transform="translate(1.600000, 2.400000)" stroke="#FFFFFF" stroke-width="2">
                            <polyline id="Path" stroke-linecap="square" points="3.96 22.32 0 18.36 3.96 14.4"></polyline>
                            <path d="M0.8,18.4 L16,18.4 M8,4 L23.2,4" id="Shape"></path>
                            <path d="M19.96,0 L23.92,3.96 L19.96,7.92 M16,14.4 L24,14.4 L24,22.4 L16,22.4 L16,14.4 Z" id="Shape" stroke-linecap="square"></path>
                            <rect id="Rectangle" stroke-linecap="square" x="0" y="0" width="8" height="8" rx="4"></rect>
                        </g>
                    </g>
                </g>
            </g>
        </g>
    </g>
</svg>