<?xml version="1.0" encoding="UTF-8"?>
<svg width="58px" height="59px" viewBox="0 0 58 59" version="1.1" xmlns="http://www.w3.org/2000/svg" xmlns:xlink="http://www.w3.org/1999/xlink">
    <title>instagram</title>
    <defs>
        <linearGradient x1="50%" y1="0%" x2="50%" y2="100%" id="linearGradient-1">
            <stop stop-color="#634DCF" offset="0%"></stop>
            <stop stop-color="#BC29A4" offset="28.8943471%"></stop>
            <stop stop-color="#DD1C7D" offset="50.0945181%"></stop>
            <stop stop-color="#F55251" offset="72.3080595%"></stop>
            <stop stop-color="#FF7640" offset="87.4927828%"></stop>
            <stop stop-color="#FF9E4A" offset="100%"></stop>
        </linearGradient>
        <circle id="path-2" cx="17.15175" cy="16.57425" r="16.57425"></circle>
        <filter x="-67.9%" y="-49.8%" width="235.8%" height="235.8%" filterUnits="objectBoundingBox" id="filter-3">
            <feOffset dx="0" dy="6" in="SourceAlpha" result="shadowOffsetOuter1"></feOffset>
            <feGaussianBlur stdDeviation="6.5" in="shadowOffsetOuter1" result="shadowBlurOuter1"></feGaussianBlur>
            <feColorMatrix values="0 0 0 0 0.988235294   0 0 0 0 0.415686275   0 0 0 0 0.270588235  0 0 0 0.26 0" type="matrix" in="shadowBlurOuter1"></feColorMatrix>
        </filter>
    </defs>
    <g id="Page-1" stroke="none" stroke-width="1" fill="none" fill-rule="evenodd">
        <g id="Home-" transform="translate(-180.000000, -4034.000000)">
            <g id="instagram" transform="translate(192.000000, 4041.000000)">
                <g id="Oval">
                    <use fill="black" fill-opacity="1" filter="url(#filter-3)" xlink:href="#path-2"></use>
                    <use fill="url(#linearGradient-1)" fill-rule="evenodd" xlink:href="#path-2"></use>
                </g>
                <path d="M17.15175,14.14875 C15.8121833,14.14875 14.72625,15.2346833 14.72625,16.57425 C14.72625,17.9138167 15.8121833,18.99975 17.15175,18.99975 C18.4913167,18.99975 19.57725,17.9138167 19.57725,16.57425 C19.57725,15.2346833 18.4913167,14.14875 17.15175,14.14875 Z M17.15175,12.53175 C19.3843611,12.53175 21.19425,14.3416389 21.19425,16.57425 C21.19425,18.8068611 19.3843611,20.61675 17.15175,20.61675 C14.9191389,20.61675 13.10925,18.8068611 13.10925,16.57425 C13.10925,14.3416389 14.9191389,12.53175 17.15175,12.53175 L17.15175,12.53175 Z M22.407,12.329625 C22.407,12.8877778 21.9545278,13.34025 21.396375,13.34025 C20.8382222,13.34025 20.38575,12.8877778 20.38575,12.329625 C20.38575,11.7714722 20.8382222,11.319 21.396375,11.319 C21.9545278,11.319 22.407,11.7714722 22.407,12.329625 Z M17.15175,10.10625 C15.151521,10.10625 14.824887,10.1119095 13.8943035,10.153143 C13.2604395,10.1830575 12.8351685,10.26795 12.4406205,10.421565 C12.1104419,10.5427898 11.8119415,10.7370915 11.5674405,10.9899405 C11.3143855,11.2344302 11.119817,11.532916 10.9982565,11.8631205 C10.8446415,12.2592855 10.759749,12.683748 10.730643,13.3168035 C10.688601,14.2093875 10.68375,14.5214685 10.68375,16.57425 C10.68375,18.574479 10.6894095,18.901113 10.730643,19.8316965 C10.7605575,20.464752 10.84545,20.8908315 10.9982565,21.284571 C11.1357015,21.6362685 11.2974015,21.889329 11.5658235,22.157751 C11.838288,22.429407 12.0913485,22.5919155 12.4390035,22.7261265 C12.8384025,22.88055 13.2636735,22.966251 13.8943035,22.995357 C14.7868875,23.037399 15.0989685,23.04225 17.15175,23.04225 C19.151979,23.04225 19.478613,23.0365905 20.4091965,22.995357 C21.0414435,22.9654425 21.467523,22.88055 21.862071,22.7277435 C22.191751,22.6059113 22.4900685,22.4120049 22.735251,22.1601765 C23.0077155,21.887712 23.170224,21.6346515 23.304435,21.2869965 C23.45805,20.888406 23.543751,20.4623265 23.572857,19.8316965 C23.614899,18.9391125 23.61975,18.6270315 23.61975,16.57425 C23.61975,14.574021 23.6140905,14.247387 23.572857,13.3168035 C23.5429425,12.6845565 23.45805,12.2576685 23.304435,11.8631205 C23.1825881,11.533254 22.9883713,11.234884 22.7360595,10.9899405 C22.4916772,10.7367556 22.1931597,10.5421664 21.8628795,10.4207565 C21.4667145,10.2671415 21.0414435,10.182249 20.4091965,10.153143 C19.5166125,10.111101 19.2045315,10.10625 17.15175,10.10625 Z M17.15175,8.48925 C19.3484445,8.48925 19.622526,8.497335 20.484387,8.53776 C21.3454395,8.578185 21.931602,8.7132045 22.447425,8.9137125 C22.981035,9.1190715 23.430561,9.3971955 23.880087,9.845913 C24.2912041,10.2500789 24.6093165,10.7389732 24.8122875,11.278575 C25.011987,11.7935895 25.147815,12.3805605 25.18824,13.241613 C25.2262395,14.103474 25.23675,14.3775555 25.23675,16.57425 C25.23675,18.7709445 25.228665,19.045026 25.18824,19.906887 C25.147815,20.7679395 25.011987,21.354102 24.8122875,21.869925 C24.609901,22.4098223 24.2917111,22.8988358 23.880087,23.302587 C23.4758058,23.7135631 22.9869446,24.031654 22.447425,24.2347875 C21.9324105,24.434487 21.3454395,24.570315 20.484387,24.61074 C19.622526,24.6487395 19.3484445,24.65925 17.15175,24.65925 C14.9550555,24.65925 14.680974,24.651165 13.819113,24.61074 C12.9580605,24.570315 12.371898,24.434487 11.856075,24.2347875 C11.3162607,24.0322367 10.8272808,23.7140686 10.423413,23.302587 C10.0122151,22.8984872 9.6940904,22.4095739 9.4912125,21.869925 C9.2907045,21.3549105 9.155685,20.7679395 9.11526,19.906887 C9.0772605,19.045026 9.06675,18.7709445 9.06675,16.57425 C9.06675,14.3775555 9.074835,14.103474 9.11526,13.241613 C9.155685,12.379752 9.2907045,11.794398 9.4912125,11.278575 C9.69352839,10.738642 10.0117277,10.2496141 10.423413,9.845913 C10.827397,9.43457345 11.3163435,9.11642709 11.856075,8.9137125 C12.371898,8.7132045 12.957252,8.578185 13.819113,8.53776 C14.680974,8.4997605 14.9550555,8.48925 17.15175,8.48925 Z" id="Icon-Shape" fill="#FFFFFF" fill-rule="nonzero"></path>
            </g>
        </g>
    </g>
</svg>