<svg xmlns="http://www.w3.org/2000/svg" xmlns:xlink="http://www.w3.org/1999/xlink" width="16" height="16" viewBox="0 0 16 16"><defs><path id="_335309247__a" d="M8.5 9.87v1.7a.5.5 0 0 1-1 0v-1.7a1 1 0 1 1 1 0zM10.74 6V4a2.75 2.75 0 0 0-5.32-.97.62.62 0 1 1-1.17-.45A4 4 0 0 1 12 4v2.08c.59.2 1.01.77 1.01 1.42v5c0 .83-.67 1.5-1.5 1.5h-7A1.5 1.5 0 0 1 3 12.5v-5C3 6.67 3.67 6 4.5 6h6.24zm1.01 1.5a.25.25 0 0 0-.25-.25h-7a.25.25 0 0 0-.25.25v5c0 .14.11.25.25.25h7c.14 0 .25-.11.25-.25v-5z"></path></defs><use fill="currentColor" fill-rule="nonzero" xlink:href="#_335309247__a"></use></svg>