<?xml version="1.0" encoding="utf-8"?>
<!-- Generator: Adobe Illustrator 19.0.0, SVG Export Plug-In . SVG Version: 6.00 Build 0)  -->
<svg version="1.1" id="Layer_1" xmlns="http://www.w3.org/2000/svg" xmlns:xlink="http://www.w3.org/1999/xlink" x="0px" y="0px"
	 viewBox="0 0 500 500" style="enable-background:new 0 0 500 500;" xml:space="preserve">
<style type="text/css">
	.st0{fill:#6B9A98;}
	.st1{fill:#F8C783;}
	.st2{fill:#BF884C;}
	.st3{fill:#8C5522;}
	.st4{fill:#DDA665;}
	.st5{fill:#4C7F7C;}
</style>
<g id="XMLID_2_">
	<ellipse id="XMLID_240_" class="st0" cx="255.6" cy="432" rx="216" ry="15.1"/>
	<g id="XMLID_12_">
		<rect id="XMLID_239_" x="348.7" y="128.4" class="st1" width="21.2" height="19"/>
		<rect id="XMLID_238_" x="336.4" y="191" class="st2" width="45.6" height="13.6"/>
		<rect id="XMLID_237_" x="161.1" y="251.1" class="st2" width="167.2" height="75.5"/>
		<g id="XMLID_181_">
			<g id="XMLID_191_">
				<rect id="XMLID_236_" x="193.9" y="182.2" class="st1" width="104.8" height="69.4"/>
				<rect id="XMLID_235_" x="190.9" y="180" class="st3" width="111.3" height="7.9"/>
				<rect id="XMLID_234_" x="200.5" y="193.6" class="st4" width="11.1" height="58"/>
				<rect id="XMLID_233_" x="195.4" y="172.3" class="st4" width="99.4" height="7.7"/>
				<rect id="XMLID_232_" x="222.6" y="193.6" class="st4" width="11.1" height="58"/>
				<rect id="XMLID_231_" x="243.3" y="193.6" class="st4" width="11.1" height="58"/>
				<rect id="XMLID_230_" x="265.3" y="193.6" class="st4" width="11.1" height="58"/>
				<rect id="XMLID_229_" x="283.6" y="193.1" class="st4" width="11.1" height="57.9"/>
				<rect id="XMLID_228_" x="193.9" y="191" class="st3" width="104.8" height="2.6"/>
				<rect id="XMLID_227_" x="206.1" y="143" class="st1" width="77.6" height="29.2"/>
				<rect id="XMLID_226_" x="203.3" y="139.5" class="st4" width="82.1" height="3.5"/>
				<rect id="XMLID_225_" x="203.3" y="143" class="st3" width="82.1" height="1.8"/>
				<rect id="XMLID_224_" x="203.3" y="171.5" class="st3" width="5.7" height="8.5"/>
				<rect id="XMLID_223_" x="192.5" y="170.8" class="st3" width="104.6" height="1.5"/>
				<rect id="XMLID_222_" x="215.3" y="171.5" class="st3" width="5.7" height="8.5"/>
				<rect id="XMLID_221_" x="227.4" y="171.9" class="st3" width="5.7" height="8.5"/>
				<rect id="XMLID_220_" x="239.4" y="171.9" class="st3" width="5.7" height="8.5"/>
				<rect id="XMLID_219_" x="251.5" y="171.9" class="st3" width="5.7" height="8.5"/>
				<rect id="XMLID_218_" x="263.5" y="171.9" class="st3" width="5.7" height="8.5"/>
				<rect id="XMLID_217_" x="275.9" y="171.9" class="st3" width="5.7" height="8.5"/>
				<rect id="XMLID_216_" x="287.9" y="171.9" class="st3" width="5.7" height="8.5"/>
				<rect id="XMLID_215_" x="195.4" y="172.3" class="st3" width="2.8" height="8.5"/>
				<rect id="XMLID_214_" x="208.2" y="149.4" class="st4" width="9.2" height="16.4"/>
				<rect id="XMLID_213_" x="208.7" y="152.4" class="st3" width="7.9" height="10"/>
				<rect id="XMLID_212_" x="223.6" y="149.4" class="st4" width="9.2" height="16.4"/>
				<rect id="XMLID_211_" x="224.2" y="152.4" class="st3" width="7.9" height="10"/>
				<rect id="XMLID_210_" x="238.9" y="149.4" class="st4" width="9.2" height="16.4"/>
				<rect id="XMLID_209_" x="239.5" y="152.4" class="st3" width="7.9" height="10"/>
				<rect id="XMLID_208_" x="255.6" y="149.4" class="st4" width="9.2" height="16.4"/>
				<rect id="XMLID_207_" x="256.2" y="152.4" class="st3" width="7.9" height="10"/>
				<rect id="XMLID_206_" x="271.3" y="149.4" class="st4" width="9.2" height="16.4"/>
				<rect id="XMLID_205_" x="271.8" y="152.4" class="st3" width="7.9" height="10"/>
				<rect id="XMLID_204_" x="203.3" y="137.1" class="st3" width="82.1" height="2.4"/>
				<path id="XMLID_203_" class="st3" d="M285.1,137.6c0-0.5,0-1,0-1.5c0-26.6-18.2-48.2-40.6-48.2c-22.4,0-40.6,21.6-40.6,48.2
					c0,0.5,0,1,0,1.5H285.1z"/>
				<rect id="XMLID_202_" x="231.8" y="83.1" class="st3" width="25.5" height="7.4"/>
				<rect id="XMLID_201_" x="231.8" y="86.8" class="st1" width="25.5" height="2.5"/>
				<rect id="XMLID_200_" x="236.1" y="69.4" class="st1" width="16.9" height="13.7"/>
				<rect id="XMLID_199_" x="232.4" y="68.3" class="st1" width="24.3" height="1"/>
				<rect id="XMLID_198_" x="237.7" y="60.3" class="st1" width="13.7" height="8.6"/>
				<path id="XMLID_197_" class="st4" d="M252.7,60.3c0-0.1,0-0.2,0-0.3c0-5.3-3.6-9.6-8.1-9.6c-4.5,0-8.1,4.3-8.1,9.6
					c0,0.1,0,0.2,0,0.3H252.7z"/>
				<rect id="XMLID_196_" x="234.2" y="60.3" class="st4" width="20.7" height="1.5"/>
				<rect id="XMLID_195_" x="243.2" y="34.2" class="st4" width="2.8" height="19.4"/>
				<path id="XMLID_194_" class="st4" d="M247.6,47.4c0,1.5-1.4,2.8-3,2.8c-1.7,0-3-1.2-3-2.8c0-1.5,1.4-2.8,3-2.8
					C246.2,44.7,247.6,45.9,247.6,47.4z"/>
				<rect id="XMLID_193_" x="232.4" y="69.4" class="st4" width="24.3" height="1.4"/>
				<rect id="XMLID_192_" x="239.6" y="38.6" class="st4" width="10.7" height="2.1"/>
			</g>
			<rect id="XMLID_190_" x="188.7" y="251.1" class="st1" width="113.5" height="15.4"/>
			<rect id="XMLID_189_" x="188.7" y="266.5" class="st4" width="113.5" height="67"/>
			<rect id="XMLID_188_" x="188.7" y="261.6" class="st3" width="113.5" height="4.9"/>
			<polygon id="XMLID_187_" class="st3" points="189.1,251.1 247,201.1 302.6,251.1 			"/>
			<polygon id="XMLID_186_" class="st1" points="193.5,251.6 246.9,204.6 298.3,251.6 			"/>
			<rect id="XMLID_185_" x="161.1" y="331.3" class="st1" width="167.2" height="18.9"/>
			<rect id="XMLID_184_" x="161.1" y="350.1" class="st4" width="167.2" height="70.8"/>
			<rect id="XMLID_183_" x="161.1" y="326.6" class="st3" width="167.2" height="4.7"/>
			<rect id="XMLID_182_" x="161.1" y="341.8" class="st3" width="167.2" height="2"/>
		</g>
		<rect id="XMLID_180_" x="328.3" y="251.1" class="st1" width="62" height="169.9"/>
		<rect id="XMLID_179_" x="328.3" y="251.1" class="st3" width="67.7" height="5"/>
		<rect id="XMLID_178_" x="328.3" y="326.6" class="st3" width="67.7" height="23.5"/>
		<path id="XMLID_177_" class="st1" d="M377.4,204.6c-2.9-6.5-9.5-11-17.2-11c-7.7,0-14.3,4.5-17.2,11h-14.5v46.5h61.3v-46.5H377.4z
			"/>
		<path id="XMLID_176_" class="st2" d="M374.6,213.4c0,8.1-6.6,14.7-14.7,14.7c-8.1,0-14.7-6.6-14.7-14.7c0-8.1,6.6-14.7,14.7-14.7
			C368.1,198.7,374.6,205.3,374.6,213.4z"/>
		<path id="XMLID_175_" class="st3" d="M371.6,213.6c0,6.9-5.2,12.5-11.6,12.5c-6.4,0-11.6-5.6-11.6-12.5c0-6.9,5.2-12.5,11.6-12.5
			C366.4,201.1,371.6,206.7,371.6,213.6z"/>
		<rect id="XMLID_174_" x="333.3" y="187.9" class="st2" width="51.3" height="3.1"/>
		<rect id="XMLID_173_" x="333.3" y="159.9" class="st2" width="51.3" height="4.8"/>
		<rect id="XMLID_172_" x="342.1" y="256.1" class="st2" width="34.6" height="70.6"/>
		<rect id="XMLID_171_" x="348.3" y="276" class="st1" width="23.2" height="38.2"/>
		<rect id="XMLID_170_" x="353" y="279.5" class="st3" width="13.6" height="30.3"/>
		<rect id="XMLID_169_" x="336.4" y="164.7" class="st1" width="45.6" height="23.2"/>
		<rect id="XMLID_168_" x="342.1" y="162.3" class="st2" width="2.6" height="27.1"/>
		<rect id="XMLID_167_" x="347.2" y="162.3" class="st2" width="3" height="27.1"/>
		<rect id="XMLID_166_" x="368.6" y="162.2" class="st2" width="2.6" height="27.1"/>
		<rect id="XMLID_165_" x="373.7" y="162.2" class="st2" width="3" height="27.1"/>
		<rect id="XMLID_164_" x="336.4" y="157.3" class="st3" width="44.3" height="2.6"/>
		<path id="XMLID_163_" class="st3" d="M342.1,137.6c1,0.6,16.4,7.2,16.4,7.2l18.2-7.2v19.8h-34.6V137.6z"/>
		<g id="XMLID_159_">
			<path id="XMLID_162_" class="st3" d="M374.6,127.1c0,0.7-0.6,1.3-1.3,1.3h-26.7c-0.7,0-1.3-0.6-1.3-1.3l0,0
				c0-0.7,0.6-1.3,1.3-1.3h26.7C374,125.8,374.6,126.4,374.6,127.1L374.6,127.1z"/>
			<polygon id="XMLID_161_" class="st3" points="370.5,125.8 347.9,125.8 352.5,109.1 367,109.1 			"/>
			<path id="XMLID_160_" class="st3" d="M367,109.1c0,3.9-3.2,7.2-7.2,7.2c-4,0-7.2-3.2-7.2-7.2c0-4,3.2-7.2,7.2-7.2
				C363.8,102,367,105.2,367,109.1z"/>
		</g>
		<rect id="XMLID_158_" x="342.1" y="231.9" class="st2" width="35.6" height="17.8"/>
		<rect id="XMLID_157_" x="333.3" y="256.1" class="st2" width="3.1" height="70.6"/>
		<rect id="XMLID_156_" x="382" y="256.1" class="st2" width="2.6" height="70.6"/>
		<path id="XMLID_155_" class="st2" d="M372.3,421H346v-60.8c0,0,4.4-4.6,13.1-4.6c10.1,0,13.1,4.6,13.1,4.6V421z"/>
		<path id="XMLID_154_" class="st3" d="M323,310.5h-16.2v-37.7c0,0,2.7-2.8,8.1-2.8c6.2,0,8.1,2.8,8.1,2.8V310.5z"/>
		<path id="XMLID_153_" class="st3" d="M184.1,310.5h-16.2v-37.7c0,0,2.7-2.8,8.1-2.8c6.2,0,8.1,2.8,8.1,2.8V310.5z"/>
		<path id="XMLID_152_" class="st3" d="M366.6,405.4h-14.1v-41.9c0,0,2.4-3.1,7.1-3.1c5.4,0,7.1,3.1,7.1,3.1V405.4z"/>
		<g id="XMLID_111_">
			<g id="XMLID_147_">
				<rect id="XMLID_151_" x="196.2" y="266.6" class="st1" width="7.8" height="6.2"/>
				<rect id="XMLID_150_" x="198.5" y="272.9" class="st1" width="3.2" height="49.2"/>
				<rect id="XMLID_149_" x="196.2" y="322" class="st1" width="7.8" height="5.2"/>
				<rect id="XMLID_148_" x="197.5" y="272.9" class="st1" width="5.3" height="2.3"/>
			</g>
			<g id="XMLID_142_">
				<rect id="XMLID_146_" x="206.9" y="266.6" class="st1" width="7.8" height="6.2"/>
				<rect id="XMLID_145_" x="209.2" y="272.9" class="st1" width="3.2" height="49.2"/>
				<rect id="XMLID_144_" x="206.9" y="322" class="st1" width="7.8" height="5.2"/>
				<rect id="XMLID_143_" x="208.2" y="272.9" class="st1" width="5.3" height="2.3"/>
			</g>
			<g id="XMLID_137_">
				<rect id="XMLID_141_" x="279.9" y="266.6" class="st1" width="7.8" height="6.2"/>
				<rect id="XMLID_140_" x="282.3" y="272.9" class="st1" width="3.2" height="49.2"/>
				<rect id="XMLID_139_" x="279.9" y="322" class="st1" width="7.8" height="5.2"/>
				<rect id="XMLID_138_" x="281.3" y="272.9" class="st1" width="5.3" height="2.3"/>
			</g>
			<g id="XMLID_132_">
				<rect id="XMLID_136_" x="290.7" y="266.6" class="st1" width="7.8" height="6.2"/>
				<rect id="XMLID_135_" x="293" y="272.9" class="st1" width="3.2" height="49.2"/>
				<rect id="XMLID_134_" x="290.7" y="322" class="st1" width="7.8" height="5.2"/>
				<rect id="XMLID_133_" x="292" y="272.9" class="st1" width="5.3" height="2.3"/>
			</g>
			<g id="XMLID_127_">
				<rect id="XMLID_131_" x="223.8" y="266.6" class="st1" width="7.8" height="6.2"/>
				<rect id="XMLID_130_" x="226.1" y="272.9" class="st1" width="3.2" height="49.2"/>
				<rect id="XMLID_129_" x="223.8" y="322" class="st1" width="7.8" height="5.2"/>
				<rect id="XMLID_128_" x="225.1" y="272.9" class="st1" width="5.3" height="2.3"/>
			</g>
			<g id="XMLID_122_">
				<rect id="XMLID_126_" x="234.5" y="266.6" class="st1" width="7.8" height="6.2"/>
				<rect id="XMLID_125_" x="236.8" y="272.9" class="st1" width="3.2" height="49.2"/>
				<rect id="XMLID_124_" x="234.5" y="322" class="st1" width="7.8" height="5.2"/>
				<rect id="XMLID_123_" x="235.8" y="272.9" class="st1" width="5.3" height="2.3"/>
			</g>
			<g id="XMLID_117_">
				<rect id="XMLID_121_" x="254.8" y="266.6" class="st1" width="7.8" height="6.2"/>
				<rect id="XMLID_120_" x="257.1" y="272.9" class="st1" width="3.2" height="49.2"/>
				<rect id="XMLID_119_" x="254.8" y="322" class="st1" width="7.8" height="5.2"/>
				<rect id="XMLID_118_" x="256.1" y="272.9" class="st1" width="5.3" height="2.3"/>
			</g>
			<g id="XMLID_112_">
				<rect id="XMLID_116_" x="265.5" y="266.6" class="st1" width="7.8" height="6.2"/>
				<rect id="XMLID_115_" x="267.8" y="272.9" class="st1" width="3.2" height="49.2"/>
				<rect id="XMLID_114_" x="265.5" y="322" class="st1" width="7.8" height="5.2"/>
				<rect id="XMLID_113_" x="266.8" y="272.9" class="st1" width="5.3" height="2.3"/>
			</g>
		</g>
		<rect id="XMLID_110_" x="161.1" y="326.6" class="st2" width="234.9" height="2.3"/>
		<g id="XMLID_105_">
			<rect id="XMLID_109_" x="195.7" y="349.1" class="st1" width="7.8" height="5.8"/>
			<rect id="XMLID_108_" x="198" y="355" class="st1" width="3.2" height="46"/>
			<rect id="XMLID_107_" x="195.7" y="400.9" class="st1" width="7.8" height="4.9"/>
			<rect id="XMLID_106_" x="197" y="355" class="st1" width="5.3" height="2.1"/>
		</g>
		<g id="XMLID_100_">
			<rect id="XMLID_104_" x="206.4" y="349.1" class="st1" width="7.8" height="5.8"/>
			<rect id="XMLID_103_" x="208.7" y="355" class="st1" width="3.2" height="46"/>
			<rect id="XMLID_102_" x="206.4" y="400.9" class="st1" width="7.8" height="4.9"/>
			<rect id="XMLID_101_" x="207.8" y="355" class="st1" width="5.3" height="2.1"/>
		</g>
		<g id="XMLID_95_">
			<rect id="XMLID_99_" x="279.5" y="349.1" class="st1" width="7.8" height="5.8"/>
			<rect id="XMLID_98_" x="281.8" y="355" class="st1" width="3.2" height="46"/>
			<rect id="XMLID_97_" x="279.5" y="400.9" class="st1" width="7.8" height="4.9"/>
			<rect id="XMLID_96_" x="280.8" y="355" class="st1" width="5.3" height="2.1"/>
		</g>
		<g id="XMLID_90_">
			<rect id="XMLID_94_" x="290.2" y="349.1" class="st1" width="7.8" height="5.8"/>
			<rect id="XMLID_93_" x="292.5" y="355" class="st1" width="3.1" height="46"/>
			<rect id="XMLID_92_" x="290.2" y="400.9" class="st1" width="7.8" height="4.9"/>
			<rect id="XMLID_91_" x="291.5" y="355" class="st1" width="5.3" height="2.1"/>
		</g>
		<g id="XMLID_85_">
			<rect id="XMLID_89_" x="223.3" y="349.1" class="st1" width="7.8" height="5.8"/>
			<rect id="XMLID_88_" x="225.6" y="355" class="st1" width="3.1" height="46"/>
			<rect id="XMLID_87_" x="223.3" y="400.9" class="st1" width="7.8" height="4.9"/>
			<rect id="XMLID_86_" x="224.6" y="355" class="st1" width="5.3" height="2.1"/>
		</g>
		<g id="XMLID_80_">
			<rect id="XMLID_84_" x="234" y="349.1" class="st1" width="7.8" height="5.8"/>
			<rect id="XMLID_83_" x="236.3" y="355" class="st1" width="3.2" height="46"/>
			<rect id="XMLID_82_" x="234" y="400.9" class="st1" width="7.8" height="4.9"/>
			<rect id="XMLID_81_" x="235.3" y="355" class="st1" width="5.3" height="2.1"/>
		</g>
		<g id="XMLID_75_">
			<rect id="XMLID_79_" x="254.3" y="349.1" class="st1" width="7.8" height="5.8"/>
			<rect id="XMLID_78_" x="256.6" y="355" class="st1" width="3.2" height="46"/>
			<rect id="XMLID_77_" x="254.3" y="400.9" class="st1" width="7.8" height="4.9"/>
			<rect id="XMLID_76_" x="255.7" y="355" class="st1" width="5.3" height="2.1"/>
		</g>
		<g id="XMLID_70_">
			<rect id="XMLID_74_" x="265" y="349.1" class="st1" width="7.8" height="5.8"/>
			<rect id="XMLID_73_" x="267.4" y="355" class="st1" width="3.2" height="46"/>
			<rect id="XMLID_72_" x="265" y="400.9" class="st1" width="7.8" height="4.9"/>
			<rect id="XMLID_71_" x="266.4" y="355" class="st1" width="5.3" height="2.1"/>
		</g>
		<g id="XMLID_65_">
			<rect id="XMLID_69_" x="166.7" y="349.6" class="st1" width="7.8" height="5.8"/>
			<rect id="XMLID_68_" x="169" y="355.4" class="st1" width="3.1" height="46"/>
			<rect id="XMLID_67_" x="166.7" y="401.4" class="st1" width="7.8" height="4.9"/>
			<rect id="XMLID_66_" x="168" y="355.4" class="st1" width="5.3" height="2.1"/>
		</g>
		<g id="XMLID_60_">
			<rect id="XMLID_64_" x="177.4" y="349.6" class="st1" width="7.8" height="5.8"/>
			<rect id="XMLID_63_" x="179.7" y="355.4" class="st1" width="3.2" height="46"/>
			<rect id="XMLID_62_" x="177.4" y="401.4" class="st1" width="7.8" height="4.9"/>
			<rect id="XMLID_61_" x="178.8" y="355.4" class="st1" width="5.3" height="2.1"/>
		</g>
		<g id="XMLID_55_">
			<rect id="XMLID_59_" x="306.1" y="350.1" class="st1" width="7.8" height="5.8"/>
			<rect id="XMLID_58_" x="308.5" y="355.9" class="st1" width="3.2" height="46"/>
			<rect id="XMLID_57_" x="306.1" y="401.8" class="st1" width="7.8" height="4.9"/>
			<rect id="XMLID_56_" x="307.5" y="355.9" class="st1" width="5.3" height="2.1"/>
		</g>
		<g id="XMLID_50_">
			<rect id="XMLID_54_" x="316.9" y="350.1" class="st1" width="7.8" height="5.8"/>
			<rect id="XMLID_53_" x="319.2" y="355.9" class="st1" width="3.2" height="46"/>
			<rect id="XMLID_52_" x="316.9" y="401.8" class="st1" width="7.8" height="4.9"/>
			<rect id="XMLID_51_" x="318.2" y="355.9" class="st1" width="5.3" height="2.1"/>
		</g>
		<rect id="XMLID_49_" x="161.1" y="258.8" class="st3" width="27.6" height="2.8"/>
		<rect id="XMLID_48_" x="168" y="316.1" class="st3" width="16" height="10.5"/>
		<rect id="XMLID_47_" x="302.2" y="258.8" class="st3" width="26.5" height="2.8"/>
		<rect id="XMLID_46_" x="306.8" y="316.1" class="st3" width="16" height="10.5"/>
		<g id="XMLID_15_">
			<rect id="XMLID_45_" x="120" y="128.6" class="st1" width="21.2" height="19"/>
			<rect id="XMLID_44_" x="108" y="191.1" class="st2" width="45.6" height="13.6"/>
			<rect id="XMLID_43_" x="99.6" y="251.2" class="st1" width="62" height="169.9"/>
			<rect id="XMLID_42_" x="93.9" y="251.2" class="st3" width="67.7" height="5"/>
			<rect id="XMLID_41_" x="93.9" y="326.8" class="st3" width="67.7" height="23.5"/>
			<path id="XMLID_40_" class="st1" d="M112.6,204.7c2.9-6.5,9.5-11,17.2-11s14.3,4.5,17.2,11h14.5v46.5h-61.3v-46.5H112.6z"/>
			<path id="XMLID_39_" class="st2" d="M115.3,213.5c0,8.1,6.6,14.7,14.7,14.7c8.1,0,14.7-6.6,14.7-14.7c0-8.1-6.6-14.7-14.7-14.7
				C121.9,198.8,115.3,205.4,115.3,213.5z"/>
			<path id="XMLID_38_" class="st3" d="M118.4,213.7c0,6.9,5.2,12.5,11.6,12.5c6.4,0,11.6-5.6,11.6-12.5c0-6.9-5.2-12.5-11.6-12.5
				C123.6,201.2,118.4,206.8,118.4,213.7z"/>
			<rect id="XMLID_37_" x="105.3" y="188.1" class="st2" width="51.3" height="3.1"/>
			<rect id="XMLID_36_" x="105.3" y="160.1" class="st2" width="51.3" height="4.8"/>
			<rect id="XMLID_35_" x="113.2" y="256.2" class="st2" width="34.6" height="70.6"/>
			<rect id="XMLID_34_" x="118.4" y="276.2" class="st1" width="23.2" height="38.2"/>
			<rect id="XMLID_33_" x="123.3" y="279.7" class="st3" width="13.6" height="30.3"/>
			<rect id="XMLID_32_" x="108" y="164.9" class="st1" width="45.6" height="23.2"/>
			<rect id="XMLID_31_" x="145.3" y="162.5" class="st2" width="2.6" height="27.1"/>
			<rect id="XMLID_30_" x="139.8" y="162.5" class="st2" width="3" height="27.1"/>
			<rect id="XMLID_29_" x="118.7" y="162.4" class="st2" width="2.6" height="27.1"/>
			<rect id="XMLID_28_" x="113.2" y="162.4" class="st2" width="3" height="27.1"/>
			<rect id="XMLID_27_" x="109.3" y="157.5" class="st3" width="44.3" height="2.6"/>
			<path id="XMLID_26_" class="st3" d="M147.8,137.7c-1,0.6-16.4,7.2-16.4,7.2l-18.2-7.2v19.8h34.6V137.7z"/>
			<g id="XMLID_22_">
				<path id="XMLID_25_" class="st3" d="M115.3,127.2c0,0.7,0.6,1.3,1.3,1.3h26.7c0.7,0,1.3-0.6,1.3-1.3l0,0c0-0.7-0.6-1.3-1.3-1.3
					h-26.7C115.9,125.9,115.3,126.5,115.3,127.2L115.3,127.2z"/>
				<polygon id="XMLID_24_" class="st3" points="119.4,125.9 142.1,125.9 137.4,109.3 122.9,109.3 				"/>
				<path id="XMLID_23_" class="st3" d="M122.9,109.3c0,3.9,3.2,7.1,7.2,7.1c4,0,7.3-3.2,7.3-7.1c0-4-3.2-7.2-7.3-7.2
					C126.2,102.1,122.9,105.3,122.9,109.3z"/>
			</g>
			<rect id="XMLID_21_" x="112.2" y="232" class="st2" width="35.6" height="17.8"/>
			<rect id="XMLID_20_" x="153.5" y="256.2" class="st2" width="3.1" height="70.6"/>
			<rect id="XMLID_19_" x="105.3" y="256.2" class="st2" width="2.6" height="70.6"/>
			<path id="XMLID_18_" class="st2" d="M117.6,421.1h26.3v-60.8c0,0-4.4-4.6-13.1-4.6c-10.1,0-13.1,4.6-13.1,4.6V421.1z"/>
			<path id="XMLID_17_" class="st3" d="M123.3,405.5h14.1v-41.9c0,0-2.4-3.1-7.1-3.1c-5.4,0-7.1,3.1-7.1,3.1V405.5z"/>
			<rect id="XMLID_16_" x="93.9" y="326.8" class="st2" width="70.6" height="2.3"/>
		</g>
		<rect id="XMLID_14_" x="93.9" y="405.5" class="st2" width="296.5" height="18.2"/>
		<rect id="XMLID_13_" x="90.8" y="421" class="st3" width="302.4" height="5.5"/>
	</g>
	<g id="XMLID_9_">
		<path id="XMLID_11_" class="st0" d="M105.3,380.7c0,25.3-8.1,45.7-18.1,45.7c-10,0-18.1-20.5-18.1-45.7
			c0-25.3,16.7-78.4,18.1-76.5C89.4,307.1,105.3,355.4,105.3,380.7z"/>
		<path id="XMLID_10_" class="st5" d="M87.2,304.2v122.3c10,0,18.1-20.5,18.1-45.7C105.3,355.5,89.4,307.2,87.2,304.2z"/>
	</g>
	<g id="XMLID_6_">
		<path id="XMLID_8_" class="st0" d="M73.2,407.1c0,14.7-4.7,26.6-10.5,26.6c-5.8,0-10.5-11.9-10.5-26.6c0-14.7,9.7-45.6,10.5-44.5
			C63.9,364.3,73.2,392.4,73.2,407.1z"/>
		<path id="XMLID_7_" class="st5" d="M62.7,362.6v71.1c5.8,0,10.5-11.9,10.5-26.6C73.2,392.4,63.9,364.3,62.7,362.6z"/>
	</g>
	<g id="XMLID_3_">
		<path id="XMLID_5_" class="st0" d="M433,400.3c0,17.9-5.7,32.4-12.8,32.4s-12.8-14.5-12.8-32.4c0-17.9,11.9-55.6,12.8-54.3
			C421.6,348.1,433,382.4,433,400.3z"/>
		<path id="XMLID_4_" class="st5" d="M420.1,346.1v86.7c7.1,0,12.8-14.5,12.8-32.4C433,382.5,421.6,348.2,420.1,346.1z"/>
	</g>
</g>
</svg>
