<?xml version="1.0" encoding="utf-8"?>
<!-- Generator: Adobe Illustrator 19.0.0, SVG Export Plug-In . SVG Version: 6.00 Build 0)  -->
<svg version="1.1" id="Layer_1" xmlns="http://www.w3.org/2000/svg" xmlns:xlink="http://www.w3.org/1999/xlink" x="0px" y="0px"
	 viewBox="0 0 500 500" style="enable-background:new 0 0 500 500;" xml:space="preserve">
<style type="text/css">
	.st0{fill:#76888F;}
	.st1{fill:#203C44;}
	.st2{fill:#54666C;}
	.st3{fill:#F8C783;}
	.st4{fill:#9E6327;}
	.st5{fill:#DDA665;}
	.st6{fill:#B77D3D;}
	.st7{fill:#8C5522;}
	.st8{fill:#77441B;}
</style>
<rect id="XMLID_355_" x="117.1" y="358.1" class="st0" width="270.1" height="7.8"/>
<g id="XMLID_753_">
	<rect id="XMLID_354_" x="113.6" y="365.9" class="st1" width="264.9" height="5.1"/>
	<path id="XMLID_353_" class="st1" d="M113.2,433.9c25.4-32.7,74.9-54.9,131.7-54.9c56.8,0,106.3,22.2,131.7,54.9h8.3
		c-25.7-36.6-78.8-61.7-140-61.7c-61.2,0-114.3,25.2-140,61.7H113.2z"/>
	<g id="XMLID_759_">
		<rect id="XMLID_352_" x="129.9" y="365.9" class="st1" width="5" height="46"/>
		<rect id="XMLID_351_" x="164" y="371" class="st1" width="3.5" height="17.9"/>
		<rect id="XMLID_350_" x="191.4" y="368.5" class="st1" width="3.2" height="11.5"/>
		<polygon id="XMLID_349_" class="st1" points="165.3,392.1 133.5,370.5 135.3,367.8 167.1,389.4 		"/>
	</g>
	<g id="XMLID_754_">
		<rect id="XMLID_348_" x="352.4" y="365.9" class="st1" width="5" height="42.8"/>
		<rect id="XMLID_347_" x="319.8" y="370.7" class="st1" width="3.5" height="16.6"/>
		<rect id="XMLID_346_" x="292.8" y="368.3" class="st1" width="3.2" height="10.7"/>
		<polygon id="XMLID_345_" class="st1" points="322,390.3 353.8,370.2 352,367.7 320.2,387.8 		"/>
	</g>
</g>
<g id="XMLID_639_">
	<g id="XMLID_709_">
		<rect id="XMLID_344_" x="114.9" y="241.3" class="st0" width="265.8" height="11.5"/>
		<rect id="XMLID_343_" x="118.2" y="243.4" class="st2" width="15.2" height="7.6"/>
		<rect id="XMLID_342_" x="119.7" y="244.3" class="st3" width="12.3" height="5.4"/>
		<g id="XMLID_747_">
			<rect id="XMLID_341_" x="137.4" y="243.2" class="st2" width="15.2" height="7.6"/>
			<rect id="XMLID_340_" x="138.9" y="244.2" class="st3" width="12.3" height="5.4"/>
		</g>
		<g id="XMLID_744_">
			<rect id="XMLID_339_" x="155.1" y="243.1" class="st2" width="15.2" height="7.6"/>
			<rect id="XMLID_338_" x="156.6" y="244" class="st3" width="12.3" height="5.4"/>
		</g>
		<g id="XMLID_741_">
			<rect id="XMLID_337_" x="175" y="243" class="st2" width="15.2" height="7.6"/>
			<rect id="XMLID_336_" x="176.5" y="244" class="st3" width="12.3" height="5.4"/>
		</g>
		<g id="XMLID_738_">
			<rect id="XMLID_335_" x="192.7" y="242.8" class="st2" width="15.2" height="7.6"/>
			<rect id="XMLID_334_" x="194.2" y="243.8" class="st3" width="12.3" height="5.4"/>
		</g>
		<g id="XMLID_735_">
			<rect id="XMLID_333_" x="211.9" y="242.8" class="st2" width="15.2" height="7.6"/>
			<rect id="XMLID_332_" x="213.4" y="243.7" class="st3" width="12.3" height="5.4"/>
		</g>
		<g id="XMLID_732_">
			<rect id="XMLID_331_" x="229.6" y="242.6" class="st2" width="15.2" height="7.6"/>
			<rect id="XMLID_330_" x="231.1" y="243.6" class="st3" width="12.3" height="5.4"/>
		</g>
		<g id="XMLID_729_">
			<rect id="XMLID_329_" x="249.5" y="242.7" class="st2" width="15.2" height="7.6"/>
			<rect id="XMLID_328_" x="251" y="243.7" class="st3" width="12.3" height="5.4"/>
		</g>
		<g id="XMLID_726_">
			<rect id="XMLID_327_" x="267.3" y="242.6" class="st2" width="15.2" height="7.6"/>
			<rect id="XMLID_326_" x="268.7" y="243.5" class="st3" width="12.3" height="5.4"/>
		</g>
		<g id="XMLID_723_">
			<rect id="XMLID_325_" x="286.4" y="242.5" class="st2" width="15.2" height="7.6"/>
			<rect id="XMLID_324_" x="287.9" y="243.4" class="st3" width="12.3" height="5.4"/>
		</g>
		<g id="XMLID_720_">
			<rect id="XMLID_323_" x="304.2" y="242.3" class="st2" width="15.2" height="7.6"/>
			<rect id="XMLID_322_" x="305.6" y="243.3" class="st3" width="12.3" height="5.4"/>
		</g>
		<g id="XMLID_717_">
			<rect id="XMLID_321_" x="323.1" y="242.8" class="st2" width="15.2" height="7.6"/>
			<rect id="XMLID_320_" x="324.6" y="243.7" class="st3" width="12.3" height="5.4"/>
		</g>
		<g id="XMLID_714_">
			<rect id="XMLID_319_" x="340.9" y="242.6" class="st2" width="15.2" height="7.6"/>
			<rect id="XMLID_318_" x="342.3" y="243.6" class="st3" width="12.3" height="5.4"/>
		</g>
		<g id="XMLID_711_">
			<rect id="XMLID_317_" x="360" y="242.5" class="st2" width="15.2" height="7.6"/>
			<rect id="XMLID_316_" x="361.5" y="243.5" class="st3" width="12.3" height="5.4"/>
		</g>
		<rect id="XMLID_315_" x="116.3" y="236.2" class="st1" width="270.4" height="5.9"/>
	</g>
	<rect id="XMLID_314_" x="114.9" y="219.4" class="st0" width="267.1" height="17.3"/>
	<g id="XMLID_705_">
		<polygon id="XMLID_313_" class="st3" points="131.2,235.9 119.9,221.3 121.3,220.3 132.6,235 		"/>
		<polygon id="XMLID_312_" class="st3" points="121.1,236.1 132.7,221.1 131.4,220.2 119.8,235.2 		"/>
	</g>
	<g id="XMLID_702_">
		<polygon id="XMLID_311_" class="st3" points="146.7,235.9 135.4,221.3 136.8,220.3 148,235 		"/>
		<polygon id="XMLID_310_" class="st3" points="136.6,236.1 148.2,221.1 146.9,220.2 135.3,235.2 		"/>
	</g>
	<g id="XMLID_699_">
		<polygon id="XMLID_309_" class="st3" points="162.6,235.9 151.3,221.3 152.7,220.3 163.9,235 		"/>
		<polygon id="XMLID_308_" class="st3" points="152.5,236.1 164.1,221.1 162.8,220.2 151.1,235.2 		"/>
	</g>
	<g id="XMLID_696_">
		<polygon id="XMLID_307_" class="st3" points="178,235.9 166.8,221.3 168.2,220.3 179.4,235 		"/>
		<polygon id="XMLID_306_" class="st3" points="168,236.1 179.6,221.1 178.2,220.2 166.6,235.2 		"/>
	</g>
	<g id="XMLID_693_">
		<polygon id="XMLID_305_" class="st3" points="193,235.9 181.7,221.3 183.1,220.3 194.3,235 		"/>
		<polygon id="XMLID_304_" class="st3" points="182.9,236.1 194.5,221.1 193.2,220.2 181.5,235.2 		"/>
	</g>
	<g id="XMLID_690_">
		<polygon id="XMLID_303_" class="st3" points="208.4,235.9 197.2,221.3 198.6,220.3 209.8,235 		"/>
		<polygon id="XMLID_302_" class="st3" points="198.4,236.1 210,221.1 208.6,220.2 197,235.2 		"/>
	</g>
	<g id="XMLID_687_">
		<polygon id="XMLID_301_" class="st3" points="224.8,235.9 213.5,221.3 214.9,220.3 226.1,235 		"/>
		<polygon id="XMLID_300_" class="st3" points="214.7,236.1 226.3,221.1 225,220.2 213.4,235.2 		"/>
	</g>
	<g id="XMLID_684_">
		<polygon id="XMLID_299_" class="st3" points="240.3,235.9 229,221.3 230.4,220.3 241.6,235 		"/>
		<polygon id="XMLID_298_" class="st3" points="230.2,236.1 241.8,221.1 240.5,220.2 228.9,235.2 		"/>
	</g>
	<g id="XMLID_681_">
		<polygon id="XMLID_297_" class="st3" points="256.1,235.9 244.9,221.3 246.3,220.3 257.5,235 		"/>
		<polygon id="XMLID_296_" class="st3" points="246.1,236.1 257.7,221.1 256.3,220.2 244.7,235.2 		"/>
	</g>
	<g id="XMLID_678_">
		<polygon id="XMLID_295_" class="st3" points="271.6,235.9 260.4,221.3 261.8,220.3 273,235 		"/>
		<polygon id="XMLID_294_" class="st3" points="261.6,236.1 273.2,221.1 271.8,220.2 260.2,235.2 		"/>
	</g>
	<g id="XMLID_675_">
		<polygon id="XMLID_293_" class="st3" points="286.5,235.9 275.3,221.3 276.7,220.3 287.9,235 		"/>
		<polygon id="XMLID_292_" class="st3" points="276.5,236.1 288.1,221.1 286.7,220.2 275.1,235.2 		"/>
	</g>
	<g id="XMLID_672_">
		<polygon id="XMLID_291_" class="st3" points="302,235.9 290.8,221.3 292.2,220.3 303.4,235 		"/>
		<polygon id="XMLID_290_" class="st3" points="292,236.1 303.6,221.1 302.2,220.2 290.6,235.2 		"/>
	</g>
	<g id="XMLID_669_">
		<polygon id="XMLID_289_" class="st3" points="318.1,235.9 306.9,221.3 308.2,220.3 319.5,235 		"/>
		<polygon id="XMLID_288_" class="st3" points="308,236.1 319.7,221.1 318.3,220.2 306.7,235.2 		"/>
	</g>
	<g id="XMLID_666_">
		<polygon id="XMLID_287_" class="st3" points="333,235.9 321.8,221.3 323.2,220.3 334.4,235 		"/>
		<polygon id="XMLID_286_" class="st3" points="323,236.1 334.6,221.1 333.2,220.2 321.6,235.2 		"/>
	</g>
	<g id="XMLID_663_">
		<polygon id="XMLID_285_" class="st3" points="348.5,235.9 337.3,221.3 338.7,220.3 349.9,235 		"/>
		<polygon id="XMLID_284_" class="st3" points="338.4,236.1 350.1,221.1 348.7,220.2 337.1,235.2 		"/>
	</g>
	<g id="XMLID_660_">
		<polygon id="XMLID_283_" class="st3" points="363.5,235.4 352.3,220.8 353.7,219.8 364.9,234.4 		"/>
		<polygon id="XMLID_282_" class="st3" points="353.5,235.6 365.1,220.6 363.7,219.6 352.1,234.6 		"/>
	</g>
	<g id="XMLID_657_">
		<polygon id="XMLID_281_" class="st3" points="379,235.4 367.8,220.8 369.2,219.8 380.4,234.4 		"/>
		<polygon id="XMLID_280_" class="st3" points="369,235.6 380.6,220.6 379.2,219.6 367.6,234.6 		"/>
	</g>
	<rect id="XMLID_279_" x="170.5" y="214.4" class="st1" width="19.9" height="23.8"/>
	<rect id="XMLID_278_" x="113.4" y="219.1" class="st1" width="268.6" height="3.8"/>
	<rect id="XMLID_277_" x="173" y="217.2" class="st3" width="14.9" height="19.1"/>
	<rect id="XMLID_276_" x="240.6" y="207.5" class="st1" width="28.1" height="29.6"/>
	<rect id="XMLID_275_" x="240.6" y="202.9" class="st1" width="3.6" height="33.8"/>
	<rect id="XMLID_274_" x="264.7" y="202.9" class="st1" width="4" height="33.2"/>
	<g id="XMLID_644_">
		<rect id="XMLID_273_" x="251" y="206.7" class="st1" width="8.2" height="1.2"/>
		<path id="XMLID_272_" class="st1" d="M259.2,202c-0.9-1.1-2.4-0.6-3.3,1.1c0,0-0.1,0.1-0.1,0.1v-2h-1.6v1.8
			c-0.9-1.6-2.4-2.1-3.3-1.1c-0.9,1-0.4,3.1,0.4,4.7h2.9h0.6h0.4h0.5h3C259.6,205.1,260.1,203,259.2,202z"/>
		<path id="XMLID_271_" class="st1" d="M256.3,201.6c0,0.5-0.5,1-1.2,1c-0.7,0-1.2-0.4-1.2-1s0.5-1,1.2-1
			C255.7,200.6,256.3,201,256.3,201.6z"/>
		<path id="XMLID_645_" class="st1" d="M255.5,199.8l1.3,0.4v-1.3l-1.3,0.3c0,0-0.1-0.1-0.1-0.1l0.3-1.4h-1.2l0.3,1.4
			c0,0-0.1,0-0.1,0.1l-1.3-0.4l0,1.3l1.3-0.3c0,0,0.1,0.1,0.1,0.1l-0.6,1.3h1.8L255.5,199.8C255.4,199.8,255.4,199.8,255.5,199.8z
			 M255.1,199.8c-0.2,0-0.3-0.1-0.3-0.3c0-0.2,0.1-0.3,0.3-0.3c0.2,0,0.3,0.1,0.3,0.3C255.4,199.7,255.2,199.8,255.1,199.8z"/>
	</g>
	<rect id="XMLID_268_" x="114.9" y="234.1" class="st3" width="269.3" height="2.6"/>
	<rect id="XMLID_267_" x="326" y="212.6" class="st1" width="19.9" height="23.8"/>
	<rect id="XMLID_266_" x="328.5" y="215.5" class="st3" width="14.9" height="19.1"/>
	<rect id="XMLID_265_" x="244.9" y="211" class="st3" width="19.8" height="23.3"/>
</g>
<g id="XMLID_498_">
	<polygon id="XMLID_264_" class="st4" points="54.5,173.9 75,76.5 86.5,76.5 108.9,175.3 54.5,175.3 	"/>
	<g id="XMLID_519_">
		<rect id="XMLID_263_" x="39.4" y="173.9" class="st3" width="79.2" height="266.9"/>
		<rect id="XMLID_262_" x="23.6" y="382.9" class="st3" width="112.5" height="57.9"/>
		<rect id="XMLID_261_" x="23.6" y="382.9" class="st5" width="112.5" height="5.4"/>
		<rect id="XMLID_260_" x="61" y="173.9" class="st5" width="36.9" height="200"/>
		<rect id="XMLID_259_" x="37.6" y="370.7" class="st5" width="83.7" height="1.4"/>
		<rect id="XMLID_258_" x="37.6" y="368" class="st6" width="86" height="2.7"/>
		<rect id="XMLID_257_" x="61" y="184.1" class="st6" width="5" height="189.9"/>
		<rect id="XMLID_256_" x="68" y="335.2" class="st6" width="7" height="10.9"/>
		<rect id="XMLID_255_" x="69.1" y="336.5" class="st7" width="4.7" height="7.9"/>
		<rect id="XMLID_254_" x="88.8" y="335.2" class="st6" width="7" height="10.9"/>
		<rect id="XMLID_253_" x="89.9" y="336.5" class="st7" width="4.7" height="7.9"/>
		<rect id="XMLID_252_" x="68" y="350.1" class="st6" width="7" height="14.9"/>
		<rect id="XMLID_251_" x="69.1" y="352" class="st7" width="4.7" height="10.9"/>
		<rect id="XMLID_250_" x="88.8" y="350.1" class="st6" width="7" height="14.9"/>
		<rect id="XMLID_249_" x="89.9" y="352" class="st7" width="4.7" height="10.9"/>
		<rect id="XMLID_248_" x="39.1" y="330.9" class="st6" width="79.5" height="1.6"/>
		<rect id="XMLID_247_" x="39.1" y="318.2" class="st6" width="79.3" height="1.6"/>
		<rect id="XMLID_246_" x="96.2" y="173.9" class="st6" width="1.6" height="200"/>
		<rect id="XMLID_245_" x="39.1" y="327.1" class="st7" width="79.5" height="3.8"/>
		<rect id="XMLID_244_" x="39.1" y="316.3" class="st7" width="79.3" height="1.9"/>
		<rect id="XMLID_243_" x="39.4" y="283.6" class="st6" width="79" height="1.6"/>
		<rect id="XMLID_242_" x="39.4" y="269.5" class="st6" width="79.2" height="1.6"/>
		<rect id="XMLID_241_" x="39.4" y="279.8" class="st7" width="79" height="3.8"/>
		<rect id="XMLID_240_" x="39.4" y="267.6" class="st7" width="79.2" height="1.9"/>
		<g id="XMLID_608_">
			<rect id="XMLID_239_" x="76.3" y="340.6" class="st6" width="11" height="24.4"/>
			<rect id="XMLID_238_" x="77.6" y="341.7" class="st7" width="7.9" height="21.3"/>
			<path id="XMLID_237_" class="st6" d="M84.5,339.7c0,0.5-0.4,0.9-0.9,0.9h-3.9c-0.5,0-0.9-0.4-0.9-0.9l0,0c0-0.5,0.4-0.9,0.9-0.9
				h3.9C84,338.7,84.5,339.1,84.5,339.7L84.5,339.7z"/>
			<path id="XMLID_236_" class="st6" d="M82.1,339.2c0,0.3-0.3,0.6-0.6,0.6l0,0c-0.3,0-0.6-0.3-0.6-0.6v-5.3c0-0.3,0.3-0.6,0.6-0.6
				l0,0c0.3,0,0.6,0.3,0.6,0.6V339.2z"/>
			<path id="XMLID_235_" class="st6" d="M83.5,337.6c0,0.6-0.5,1.1-1.1,1.1h-1.9c-0.6,0-1.1-0.5-1.1-1.1l0,0c0-0.6,0.5-1.1,1.1-1.1
				h1.9C83,336.5,83.5,337,83.5,337.6L83.5,337.6z"/>
		</g>
		<g id="XMLID_602_">
			<rect id="XMLID_234_" x="76.4" y="293.1" class="st6" width="10.1" height="20.4"/>
			<rect id="XMLID_233_" x="77.7" y="294" class="st7" width="7.2" height="17.8"/>
			<path id="XMLID_232_" class="st6" d="M83.9,292.3c0,0.4-0.4,0.8-0.8,0.8h-3.6c-0.5,0-0.8-0.4-0.8-0.8l0,0c0-0.4,0.4-0.8,0.8-0.8
				h3.6C83.5,291.5,83.9,291.8,83.9,292.3L83.9,292.3z"/>
			<path id="XMLID_231_" class="st6" d="M81.7,291.9c0,0.3-0.2,0.5-0.6,0.5l0,0c-0.3,0-0.6-0.2-0.6-0.5v-4.4c0-0.3,0.2-0.5,0.6-0.5
				l0,0c0.3,0,0.6,0.2,0.6,0.5V291.9z"/>
			<path id="XMLID_230_" class="st6" d="M83.1,290.6c0,0.5-0.4,0.9-1,0.9h-1.7c-0.6,0-1-0.4-1-0.9l0,0c0-0.5,0.4-0.9,1-0.9h1.7
				C82.6,289.7,83.1,290.1,83.1,290.6L83.1,290.6z"/>
		</g>
		<rect id="XMLID_229_" x="67.9" y="298.5" class="st6" width="7" height="14.9"/>
		<rect id="XMLID_228_" x="69" y="300.4" class="st7" width="4.7" height="10.9"/>
		<rect id="XMLID_227_" x="88.1" y="298.3" class="st6" width="7" height="14.9"/>
		<rect id="XMLID_226_" x="89.2" y="300.2" class="st7" width="4.7" height="10.9"/>
		<g id="XMLID_592_">
			<rect id="XMLID_225_" x="68.6" y="247.3" class="st6" width="5.2" height="14.9"/>
			<rect id="XMLID_224_" x="69.4" y="249.1" class="st7" width="3.5" height="10.9"/>
			<rect id="XMLID_223_" x="67" y="245.8" class="st7" width="8.4" height="1.6"/>
			<rect id="XMLID_222_" x="67" y="245.8" class="st7" width="1.6" height="5.8"/>
			<rect id="XMLID_221_" x="73.8" y="245.8" class="st7" width="1.6" height="5.8"/>
		</g>
		<g id="XMLID_586_">
			<rect id="XMLID_220_" x="78.2" y="247.3" class="st6" width="5.2" height="14.9"/>
			<rect id="XMLID_219_" x="79" y="249.1" class="st7" width="3.5" height="10.9"/>
			<rect id="XMLID_218_" x="76.6" y="245.8" class="st7" width="8.4" height="1.6"/>
			<rect id="XMLID_217_" x="76.6" y="245.8" class="st7" width="1.6" height="5.8"/>
			<rect id="XMLID_216_" x="83.4" y="245.8" class="st7" width="1.6" height="5.8"/>
		</g>
		<g id="XMLID_580_">
			<rect id="XMLID_215_" x="87.6" y="247.3" class="st6" width="5.2" height="14.9"/>
			<rect id="XMLID_214_" x="88.5" y="249.1" class="st7" width="3.5" height="10.9"/>
			<rect id="XMLID_213_" x="86" y="245.8" class="st7" width="8.4" height="1.6"/>
			<rect id="XMLID_212_" x="86" y="245.8" class="st7" width="1.6" height="5.8"/>
			<rect id="XMLID_211_" x="92.8" y="245.8" class="st7" width="1.6" height="5.8"/>
		</g>
		<polygon id="XMLID_210_" class="st7" points="61,247.4 61,256.9 54.3,247.4 49.3,254.7 45.5,247.4 42.2,254.7 36.2,249.1 
			33.6,237.2 61,237.2 		"/>
		<polygon id="XMLID_209_" class="st7" points="97.9,247.4 97.9,256.9 105.3,247.4 110.9,254.7 115.2,247.4 118.8,254.7 
			125.5,249.1 128.3,237.2 97.9,237.2 		"/>
		<rect id="XMLID_208_" x="65.9" y="237.2" class="st7" width="30.3" height="5.6"/>
		<rect id="XMLID_207_" x="33.5" y="235.9" class="st8" width="94.9" height="2"/>
		<rect id="XMLID_206_" x="68" y="238.1" class="st8" width="2.3" height="4.8"/>
		<rect id="XMLID_205_" x="73.8" y="238.1" class="st8" width="2.7" height="4.8"/>
		<rect id="XMLID_204_" x="79.4" y="238.1" class="st8" width="2.4" height="4.8"/>
		<rect id="XMLID_203_" x="85" y="238.1" class="st8" width="2.3" height="4.8"/>
		<rect id="XMLID_202_" x="90.2" y="238.1" class="st8" width="1.7" height="4.8"/>
		<rect id="XMLID_201_" x="95" y="238.1" class="st8" width="1.3" height="4.8"/>
		<rect id="XMLID_200_" x="39.4" y="230.6" class="st6" width="79.2" height="1.6"/>
		<rect id="XMLID_199_" x="39.4" y="228.7" class="st7" width="79.2" height="1.9"/>
		<rect id="XMLID_198_" x="69.4" y="191.2" class="st6" width="22.6" height="27.8"/>
		<rect id="XMLID_197_" x="69.4" y="216" class="st7" width="22.6" height="3.1"/>
		<g id="XMLID_561_">
			<rect id="XMLID_196_" x="74.1" y="217.5" class="st7" width="13.4" height="4"/>
			<rect id="XMLID_195_" x="74.1" y="217.5" class="st7" width="1.8" height="5.6"/>
			<rect id="XMLID_194_" x="77.7" y="218.7" class="st7" width="6" height="4.4"/>
			<rect id="XMLID_193_" x="85.4" y="217.5" class="st7" width="2.1" height="5.6"/>
		</g>
		<rect id="XMLID_192_" x="68.6" y="210.8" class="st7" width="24.2" height="1.2"/>
		<rect id="XMLID_191_" x="69.4" y="219.1" class="st7" width="2" height="4"/>
		<rect id="XMLID_190_" x="90.2" y="218.7" class="st7" width="1.7" height="4.4"/>
		<rect id="XMLID_189_" x="71.3" y="194.6" class="st7" width="3.3" height="15.1"/>
		<rect id="XMLID_188_" x="87.2" y="194.6" class="st7" width="3.3" height="15.1"/>
		<path id="XMLID_187_" class="st7" d="M85.6,209.7h-9.7v-13.3c0,0,3.3-4.3,4.9-4.3c1.6,0,4.9,4.3,4.9,4.3V209.7z"/>
		<rect id="XMLID_186_" x="37.4" y="184.1" class="st7" width="85.2" height="3.1"/>
		<rect id="XMLID_185_" x="96.2" y="152.4" class="st5" width="22.1" height="31.7"/>
		<polygon id="XMLID_184_" class="st5" points="91.6,184.1 70.4,184.1 70.4,158.8 81,142.5 91.6,158.8 		"/>
		<rect id="XMLID_183_" x="70.3" y="152.4" class="st5" width="21.3" height="7.5"/>
		<path id="XMLID_182_" class="st7" d="M83.7,174.1h-5.8v-15.7c0,0,1.9-5.1,2.9-5.1c0.9,0,2.9,5.1,2.9,5.1V174.1z"/>
		<path id="XMLID_181_" class="st7" d="M90.1,173.9h-4.5v-12.1c0,0,1.5-3.9,2.3-3.9c0.7,0,2.3,3.9,2.3,3.9V173.9z"/>
		<path id="XMLID_180_" class="st7" d="M76.3,173.9h-4.5v-12.1c0,0,1.5-3.9,2.3-3.9c0.7,0,2.3,3.9,2.3,3.9V173.9z"/>
		<rect id="XMLID_179_" x="71.3" y="175.3" class="st6" width="19.1" height="8.8"/>
		<rect id="XMLID_178_" x="96" y="151.5" class="st5" width="26.6" height="32.6"/>
		<rect id="XMLID_177_" x="94.8" y="157.1" class="st6" width="28.8" height="1.9"/>
		<rect id="XMLID_176_" x="92.8" y="148" class="st6" width="31.8" height="3.6"/>
		<polygon id="XMLID_175_" class="st6" points="96.7,148 109.6,106.9 122.6,148 		"/>
		<rect id="XMLID_174_" x="92.8" y="148" class="st7" width="31.8" height="1.8"/>
		<polygon id="XMLID_173_" class="st7" points="102.9,148 109.6,107.9 115.8,148 		"/>
		<rect id="XMLID_172_" x="105.5" y="160.2" class="st6" width="8.1" height="21.7"/>
		<rect id="XMLID_171_" x="96.7" y="160.2" class="st6" width="8.1" height="21.7"/>
		<rect id="XMLID_170_" x="114.5" y="160.2" class="st6" width="7.2" height="21.7"/>
		<path id="XMLID_169_" class="st6" d="M113.2,107.9c0,1-0.8,1.8-1.8,1.8h-3.5c-1,0-1.8-0.8-1.8-1.8l0,0c0-1,0.8-1.8,1.8-1.8h3.5
			C112.4,106.1,113.2,106.9,113.2,107.9L113.2,107.9z"/>
		<rect id="XMLID_168_" x="108.5" y="94" class="st6" width="2.3" height="14.1"/>
		<rect id="XMLID_167_" x="105.3" y="100.1" class="st6" width="8.1" height="2.2"/>
		<path id="XMLID_166_" class="st6" d="M112.1,94.5c0,0.3-0.2,0.5-0.5,0.5h-3.7c-0.3,0-0.5-0.2-0.5-0.5l0,0c0-0.3,0.2-0.5,0.5-0.5
			h3.7C111.8,94,112.1,94.2,112.1,94.5L112.1,94.5z"/>
		<rect id="XMLID_165_" x="37.4" y="152.4" class="st5" width="26.6" height="31.7"/>
		<rect id="XMLID_164_" x="36.2" y="158" class="st6" width="28.8" height="1.9"/>
		<rect id="XMLID_163_" x="34.2" y="148.8" class="st6" width="31.8" height="3.6"/>
		<polygon id="XMLID_162_" class="st6" points="38,148.8 51,107.7 63.9,148.8 		"/>
		<rect id="XMLID_161_" x="34.2" y="148.8" class="st7" width="31.8" height="1.8"/>
		<polygon id="XMLID_160_" class="st7" points="44.3,148.8 51,108.8 57.1,148.8 		"/>
		<rect id="XMLID_159_" x="46.8" y="161" class="st6" width="8.1" height="21.7"/>
		<rect id="XMLID_158_" x="38" y="161" class="st6" width="8.1" height="21.7"/>
		<rect id="XMLID_157_" x="56.3" y="161" class="st6" width="7.2" height="21.7"/>
		<g id="XMLID_520_">
			<path id="XMLID_156_" class="st6" d="M54.8,109.2c0,1-0.8,1.8-1.8,1.8h-3.5c-1,0-1.8-0.8-1.8-1.8l0,0c0-1,0.8-1.8,1.8-1.8H53
				C54,107.4,54.8,108.2,54.8,109.2L54.8,109.2z"/>
			<rect id="XMLID_155_" x="50.2" y="95.3" class="st6" width="2.3" height="14.1"/>
			<rect id="XMLID_154_" x="46.9" y="101.4" class="st6" width="8.1" height="2.2"/>
			<path id="XMLID_153_" class="st6" d="M53.7,95.8c0,0.3-0.2,0.5-0.5,0.5h-3.7c-0.3,0-0.5-0.2-0.5-0.5l0,0c0-0.3,0.2-0.5,0.5-0.5
				h3.7C53.5,95.3,53.7,95.5,53.7,95.8L53.7,95.8z"/>
		</g>
	</g>
	<path id="XMLID_152_" class="st4" d="M91.1,73.1c0,1.9-1.5,3.4-3.4,3.4H74.8c-1.9,0-3.4-1.5-3.4-3.4l0,0c0-1.9,1.5-3.4,3.4-3.4
		h12.9C89.6,69.7,91.1,71.2,91.1,73.1L91.1,73.1z"/>
	<rect id="XMLID_151_" x="79.4" y="49" class="st4" width="3.6" height="24.1"/>
	<rect id="XMLID_150_" x="23.6" y="399" class="st4" width="112.5" height="0.9"/>
	<rect id="XMLID_149_" x="23.6" y="402.6" class="st4" width="112.5" height="1.1"/>
	<rect id="XMLID_148_" x="37.6" y="403.2" class="st4" width="4.7" height="5.8"/>
	<rect id="XMLID_147_" x="76.3" y="403.2" class="st4" width="5.4" height="5.8"/>
	<rect id="XMLID_146_" x="115" y="403.2" class="st4" width="4.3" height="5.8"/>
	<path id="XMLID_145_" class="st5" d="M42.3,428.2c0,2.1-1.7,3.7-3.7,3.7H27.3c-2.1,0-3.7-1.7-3.7-3.7l0,0c0-2.1,1.7-3.7,3.7-3.7
		h11.3C40.7,424.4,42.3,426.1,42.3,428.2L42.3,428.2z"/>
	<path id="XMLID_144_" class="st5" d="M59,413.7c0,1-0.8,1.9-1.9,1.9h-9.8c-1,0-1.9-0.8-1.9-1.9l0,0c0-1,0.8-1.9,1.9-1.9h9.8
		C58.1,411.9,59,412.7,59,413.7L59,413.7z"/>
	<path id="XMLID_143_" class="st5" d="M69.1,428.2c0,2.1-1.7,3.7-3.7,3.7h-9.5c-2,0-3.7-1.7-3.7-3.7l0,0c0-2.1,1.7-3.7,3.7-3.7h9.5
		C67.4,424.4,69.1,426.1,69.1,428.2L69.1,428.2z"/>
	<path id="XMLID_142_" class="st5" d="M81.6,415.9c0,1.2-0.9,2.1-2.1,2.1H68.1c-1.2,0-2.1-0.9-2.1-2.1l0,0c0-1.2,0.9-2.1,2.1-2.1
		h11.4C80.6,413.7,81.6,414.7,81.6,415.9L81.6,415.9z"/>
	<path id="XMLID_141_" class="st5" d="M77.6,394.9c0,1.1-0.9,2-2,2H65.5c-1.1,0-2-0.9-2-2l0,0c0-1.1,0.9-2,2-2h10.1
		C76.7,392.9,77.6,393.8,77.6,394.9L77.6,394.9z"/>
	<path id="XMLID_140_" class="st5" d="M52.2,392.7c0,1.2-1,2.2-2.2,2.2H37.5c-1.2,0-2.2-1-2.2-2.2l0,0c0-1.2,1-2.2,2.2-2.2H50
		C51.2,390.5,52.2,391.5,52.2,392.7L52.2,392.7z"/>
	<path id="XMLID_139_" class="st5" d="M111.6,429c0,1.6-1.3,2.9-2.9,2.9H96.8c-1.6,0-2.9-1.3-2.9-2.9l0,0c0-1.6,1.3-2.9,2.9-2.9
		h11.9C110.3,426.1,111.6,427.4,111.6,429L111.6,429z"/>
	<path id="XMLID_138_" class="st5" d="M105.6,392.7c0,1.2-1,2.2-2.2,2.2h-7.5c-1.2,0-2.2-1-2.2-2.2l0,0c0-1.2,1-2.2,2.2-2.2h7.5
		C104.6,390.5,105.6,391.5,105.6,392.7L105.6,392.7z"/>
	<path id="XMLID_137_" class="st5" d="M115,418.1c0,1.4-1.1,2.5-2.5,2.5H99.6c-1.4,0-2.5-1.1-2.5-2.5l0,0c0-1.4,1.1-2.5,2.5-2.5
		h12.9C113.9,415.6,115,416.7,115,418.1L115,418.1z"/>
	<path id="XMLID_136_" class="st5" d="M90.2,422.6c0,1-0.8,1.9-1.9,1.9h-4.9c-1,0-1.9-0.8-1.9-1.9l0,0c0-1,0.8-1.9,1.9-1.9h4.9
		C89.4,420.7,90.2,421.5,90.2,422.6L90.2,422.6z"/>
	<path id="XMLID_135_" class="st5" d="M133.6,435.6c0,1.1-0.9,2-2,2h-10.2c-1.1,0-2-0.9-2-2l0,0c0-1.1,0.9-2,2-2h10.2
		C132.7,433.6,133.6,434.5,133.6,435.6L133.6,435.6z"/>
	<path id="XMLID_134_" class="st5" d="M132.2,411.3c0,1.3-1.1,2.4-2.4,2.4h-6.1c-1.3,0-2.4-1.1-2.4-2.4l0,0c0-1.3,1.1-2.4,2.4-2.4
		h6.1C131.2,408.9,132.2,410,132.2,411.3L132.2,411.3z"/>
	<path id="XMLID_133_" class="st5" d="M132.2,394.8c0,1.2-0.9,2.1-2.1,2.1h-6.7c-1.2,0-2.1-0.9-2.1-2.1l0,0c0-1.2,0.9-2.1,2.1-2.1
		h6.7C131.3,392.7,132.2,393.6,132.2,394.8L132.2,394.8z"/>
</g>
<g id="XMLID_357_">
	<polygon id="XMLID_132_" class="st4" points="390.9,173.9 411.4,76.5 422.9,76.5 445.4,175.3 390.9,175.3 	"/>
	<g id="XMLID_378_">
		<rect id="XMLID_131_" x="375.8" y="173.9" class="st3" width="79.2" height="266.9"/>
		<rect id="XMLID_130_" x="360" y="382.9" class="st3" width="112.5" height="57.9"/>
		<rect id="XMLID_129_" x="360" y="382.9" class="st5" width="112.5" height="5.4"/>
		<rect id="XMLID_128_" x="397.4" y="173.9" class="st5" width="36.9" height="200"/>
		<rect id="XMLID_127_" x="374" y="370.7" class="st5" width="83.7" height="1.4"/>
		<rect id="XMLID_126_" x="374" y="368" class="st6" width="86" height="2.7"/>
		<rect id="XMLID_125_" x="397.4" y="184.1" class="st6" width="5" height="189.9"/>
		<rect id="XMLID_124_" x="404.4" y="335.2" class="st6" width="7" height="10.9"/>
		<rect id="XMLID_123_" x="405.5" y="336.5" class="st7" width="4.7" height="7.9"/>
		<rect id="XMLID_122_" x="425.2" y="335.2" class="st6" width="7" height="10.9"/>
		<rect id="XMLID_121_" x="426.3" y="336.5" class="st7" width="4.7" height="7.9"/>
		<rect id="XMLID_120_" x="404.4" y="350.1" class="st6" width="7" height="14.9"/>
		<rect id="XMLID_119_" x="405.5" y="352" class="st7" width="4.7" height="10.9"/>
		<rect id="XMLID_118_" x="425.2" y="350.1" class="st6" width="7" height="14.9"/>
		<rect id="XMLID_117_" x="426.3" y="352" class="st7" width="4.7" height="10.9"/>
		<rect id="XMLID_116_" x="375.5" y="330.9" class="st6" width="79.5" height="1.6"/>
		<rect id="XMLID_115_" x="375.5" y="318.2" class="st6" width="79.3" height="1.6"/>
		<rect id="XMLID_114_" x="432.7" y="173.9" class="st6" width="1.6" height="200"/>
		<rect id="XMLID_113_" x="375.5" y="327.1" class="st7" width="79.5" height="3.8"/>
		<rect id="XMLID_112_" x="375.5" y="316.3" class="st7" width="79.3" height="1.9"/>
		<rect id="XMLID_111_" x="375.8" y="283.6" class="st6" width="79" height="1.6"/>
		<rect id="XMLID_110_" x="375.8" y="269.5" class="st6" width="79.2" height="1.6"/>
		<rect id="XMLID_109_" x="375.8" y="279.8" class="st7" width="79" height="3.8"/>
		<rect id="XMLID_108_" x="375.8" y="267.6" class="st7" width="79.2" height="1.9"/>
		<g id="XMLID_467_">
			<rect id="XMLID_107_" x="412.7" y="340.6" class="st6" width="11" height="24.4"/>
			<rect id="XMLID_106_" x="414.1" y="341.7" class="st7" width="7.9" height="21.3"/>
			<path id="XMLID_105_" class="st6" d="M420.9,339.7c0,0.5-0.4,0.9-0.9,0.9H416c-0.5,0-0.9-0.4-0.9-0.9l0,0c0-0.5,0.4-0.9,0.9-0.9
				h3.9C420.4,338.7,420.9,339.1,420.9,339.7L420.9,339.7z"/>
			<path id="XMLID_104_" class="st6" d="M418.5,339.2c0,0.3-0.3,0.6-0.6,0.6l0,0c-0.3,0-0.6-0.3-0.6-0.6v-5.3c0-0.3,0.3-0.6,0.6-0.6
				l0,0c0.3,0,0.6,0.3,0.6,0.6V339.2z"/>
			<path id="XMLID_103_" class="st6" d="M419.9,337.6c0,0.6-0.5,1.1-1.1,1.1h-1.9c-0.6,0-1.1-0.5-1.1-1.1l0,0c0-0.6,0.5-1.1,1.1-1.1
				h1.9C419.4,336.5,419.9,337,419.9,337.6L419.9,337.6z"/>
		</g>
		<g id="XMLID_461_">
			<rect id="XMLID_102_" x="412.9" y="293.1" class="st6" width="10.1" height="20.4"/>
			<rect id="XMLID_101_" x="414.1" y="294" class="st7" width="7.2" height="17.8"/>
			<path id="XMLID_100_" class="st6" d="M420.3,292.3c0,0.4-0.4,0.8-0.8,0.8h-3.6c-0.5,0-0.8-0.4-0.8-0.8l0,0c0-0.4,0.4-0.8,0.8-0.8
				h3.6C419.9,291.5,420.3,291.8,420.3,292.3L420.3,292.3z"/>
			<path id="XMLID_99_" class="st6" d="M418.2,291.9c0,0.3-0.3,0.5-0.6,0.5l0,0c-0.3,0-0.6-0.2-0.6-0.5v-4.4c0-0.3,0.2-0.5,0.6-0.5
				l0,0c0.3,0,0.6,0.2,0.6,0.5V291.9z"/>
			<path id="XMLID_98_" class="st6" d="M419.5,290.6c0,0.5-0.5,0.9-1,0.9h-1.7c-0.6,0-1-0.4-1-0.9l0,0c0-0.5,0.4-0.9,1-0.9h1.7
				C419,289.7,419.5,290.1,419.5,290.6L419.5,290.6z"/>
		</g>
		<rect id="XMLID_97_" x="404.3" y="298.5" class="st6" width="7" height="14.9"/>
		<rect id="XMLID_96_" x="405.4" y="300.4" class="st7" width="4.7" height="10.9"/>
		<rect id="XMLID_95_" x="424.5" y="298.3" class="st6" width="7" height="14.9"/>
		<rect id="XMLID_94_" x="425.6" y="300.2" class="st7" width="4.7" height="10.9"/>
		<g id="XMLID_451_">
			<rect id="XMLID_93_" x="405" y="247.3" class="st6" width="5.2" height="14.9"/>
			<rect id="XMLID_92_" x="405.8" y="249.1" class="st7" width="3.5" height="10.9"/>
			<rect id="XMLID_91_" x="403.4" y="245.8" class="st7" width="8.4" height="1.6"/>
			<rect id="XMLID_90_" x="403.4" y="245.8" class="st7" width="1.6" height="5.8"/>
			<rect id="XMLID_89_" x="410.2" y="245.8" class="st7" width="1.6" height="5.8"/>
		</g>
		<g id="XMLID_445_">
			<rect id="XMLID_88_" x="414.6" y="247.3" class="st6" width="5.2" height="14.9"/>
			<rect id="XMLID_87_" x="415.4" y="249.1" class="st7" width="3.5" height="10.9"/>
			<rect id="XMLID_86_" x="413" y="245.8" class="st7" width="8.4" height="1.6"/>
			<rect id="XMLID_85_" x="413" y="245.8" class="st7" width="1.6" height="5.8"/>
			<rect id="XMLID_84_" x="419.8" y="245.8" class="st7" width="1.6" height="5.8"/>
		</g>
		<g id="XMLID_439_">
			<rect id="XMLID_83_" x="424" y="247.3" class="st6" width="5.2" height="14.9"/>
			<rect id="XMLID_82_" x="424.9" y="249.1" class="st7" width="3.5" height="10.9"/>
			<rect id="XMLID_81_" x="422.4" y="245.8" class="st7" width="8.4" height="1.6"/>
			<rect id="XMLID_80_" x="422.4" y="245.8" class="st7" width="1.6" height="5.8"/>
			<rect id="XMLID_79_" x="429.2" y="245.8" class="st7" width="1.6" height="5.8"/>
		</g>
		<polygon id="XMLID_78_" class="st7" points="397.4,247.4 397.4,256.9 390.7,247.4 385.7,254.7 381.9,247.4 378.6,254.7 
			372.6,249.1 370.1,237.2 397.4,237.2 		"/>
		<polygon id="XMLID_77_" class="st7" points="434.3,247.4 434.3,256.9 441.7,247.4 447.3,254.7 451.6,247.4 455.2,254.7 
			461.9,249.1 464.7,237.2 434.3,237.2 		"/>
		<rect id="XMLID_76_" x="402.4" y="237.2" class="st7" width="30.3" height="5.6"/>
		<rect id="XMLID_75_" x="369.9" y="235.9" class="st8" width="94.9" height="2"/>
		<rect id="XMLID_74_" x="404.4" y="238.1" class="st8" width="2.3" height="4.8"/>
		<rect id="XMLID_73_" x="410.2" y="238.1" class="st8" width="2.7" height="4.8"/>
		<rect id="XMLID_72_" x="415.9" y="238.1" class="st8" width="2.4" height="4.8"/>
		<rect id="XMLID_71_" x="421.4" y="238.1" class="st8" width="2.3" height="4.8"/>
		<rect id="XMLID_70_" x="426.6" y="238.1" class="st8" width="1.7" height="4.8"/>
		<rect id="XMLID_69_" x="431.4" y="238.1" class="st8" width="1.3" height="4.8"/>
		<rect id="XMLID_68_" x="375.8" y="230.6" class="st6" width="79.2" height="1.6"/>
		<rect id="XMLID_67_" x="375.8" y="228.7" class="st7" width="79.2" height="1.9"/>
		<rect id="XMLID_66_" x="405.8" y="191.2" class="st6" width="22.6" height="27.8"/>
		<rect id="XMLID_65_" x="405.8" y="216" class="st7" width="22.6" height="3.1"/>
		<g id="XMLID_420_">
			<rect id="XMLID_64_" x="410.5" y="217.5" class="st7" width="13.4" height="4"/>
			<rect id="XMLID_63_" x="410.5" y="217.5" class="st7" width="1.8" height="5.6"/>
			<rect id="XMLID_62_" x="414.1" y="218.7" class="st7" width="5.9" height="4.4"/>
			<rect id="XMLID_61_" x="421.8" y="217.5" class="st7" width="2.1" height="5.6"/>
		</g>
		<rect id="XMLID_60_" x="405" y="210.8" class="st7" width="24.2" height="1.2"/>
		<rect id="XMLID_59_" x="405.8" y="219.1" class="st7" width="2" height="4"/>
		<rect id="XMLID_58_" x="426.6" y="218.7" class="st7" width="1.7" height="4.4"/>
		<rect id="XMLID_57_" x="407.8" y="194.6" class="st7" width="3.3" height="15.1"/>
		<rect id="XMLID_56_" x="423.6" y="194.6" class="st7" width="3.3" height="15.1"/>
		<path id="XMLID_55_" class="st7" d="M422.1,209.7h-9.7v-13.3c0,0,3.3-4.3,4.9-4.3c1.6,0,4.9,4.3,4.9,4.3V209.7z"/>
		<rect id="XMLID_54_" x="373.8" y="184.1" class="st7" width="85.2" height="3.1"/>
		<rect id="XMLID_53_" x="432.7" y="152.4" class="st5" width="22.1" height="31.7"/>
		<polygon id="XMLID_52_" class="st5" points="428,184.1 406.9,184.1 406.9,158.8 417.4,142.5 428,158.8 		"/>
		<rect id="XMLID_51_" x="406.7" y="152.4" class="st5" width="21.3" height="7.5"/>
		<path id="XMLID_50_" class="st7" d="M420.1,174.1h-5.8v-15.7c0,0,2-5.1,2.9-5.1c0.9,0,2.9,5.1,2.9,5.1V174.1z"/>
		<path id="XMLID_49_" class="st7" d="M426.5,173.9H422v-12.1c0,0,1.5-3.9,2.2-3.9c0.7,0,2.3,3.9,2.3,3.9V173.9z"/>
		<path id="XMLID_48_" class="st7" d="M412.7,173.9h-4.5v-12.1c0,0,1.5-3.9,2.2-3.9c0.7,0,2.3,3.9,2.3,3.9V173.9z"/>
		<rect id="XMLID_47_" x="407.8" y="175.3" class="st6" width="19.1" height="8.8"/>
		<rect id="XMLID_46_" x="432.4" y="151.5" class="st5" width="26.6" height="32.6"/>
		<rect id="XMLID_45_" x="431.2" y="157.1" class="st6" width="28.8" height="1.9"/>
		<rect id="XMLID_44_" x="429.2" y="148" class="st6" width="31.8" height="3.6"/>
		<polygon id="XMLID_43_" class="st6" points="433.1,148 446.1,106.9 459,148 		"/>
		<rect id="XMLID_42_" x="429.2" y="148" class="st7" width="31.8" height="1.8"/>
		<polygon id="XMLID_41_" class="st7" points="439.4,148 446.1,107.9 452.2,148 		"/>
		<rect id="XMLID_40_" x="441.9" y="160.2" class="st6" width="8.1" height="21.7"/>
		<rect id="XMLID_39_" x="433.1" y="160.2" class="st6" width="8.1" height="21.7"/>
		<rect id="XMLID_38_" x="450.9" y="160.2" class="st6" width="7.2" height="21.7"/>
		<path id="XMLID_37_" class="st6" d="M449.6,107.9c0,1-0.8,1.8-1.8,1.8h-3.5c-1,0-1.8-0.8-1.8-1.8l0,0c0-1,0.8-1.8,1.8-1.8h3.5
			C448.8,106.1,449.6,106.9,449.6,107.9L449.6,107.9z"/>
		<rect id="XMLID_36_" x="445" y="94" class="st6" width="2.3" height="14.1"/>
		<rect id="XMLID_35_" x="441.7" y="100.1" class="st6" width="8.1" height="2.2"/>
		<path id="XMLID_34_" class="st6" d="M448.5,94.5c0,0.3-0.2,0.5-0.5,0.5h-3.7c-0.3,0-0.5-0.2-0.5-0.5l0,0c0-0.3,0.2-0.5,0.5-0.5
			h3.7C448.2,94,448.5,94.2,448.5,94.5L448.5,94.5z"/>
		<rect id="XMLID_33_" x="373.8" y="152.4" class="st5" width="26.6" height="31.7"/>
		<rect id="XMLID_32_" x="372.6" y="158" class="st6" width="28.8" height="1.9"/>
		<rect id="XMLID_31_" x="370.6" y="148.8" class="st6" width="31.8" height="3.6"/>
		<polygon id="XMLID_30_" class="st6" points="374.4,148.8 387.4,107.7 400.3,148.8 		"/>
		<rect id="XMLID_29_" x="370.6" y="148.8" class="st7" width="31.8" height="1.8"/>
		<polygon id="XMLID_28_" class="st7" points="380.7,148.8 387.4,108.8 393.5,148.8 		"/>
		<rect id="XMLID_27_" x="383.2" y="161" class="st6" width="8.1" height="21.7"/>
		<rect id="XMLID_26_" x="374.4" y="161" class="st6" width="8.1" height="21.7"/>
		<rect id="XMLID_25_" x="392.7" y="161" class="st6" width="7.2" height="21.7"/>
		<g id="XMLID_379_">
			<path id="XMLID_24_" class="st6" d="M391.2,109.2c0,1-0.8,1.8-1.8,1.8h-3.5c-1,0-1.8-0.8-1.8-1.8l0,0c0-1,0.8-1.8,1.8-1.8h3.5
				C390.4,107.4,391.2,108.2,391.2,109.2L391.2,109.2z"/>
			<rect id="XMLID_23_" x="386.6" y="95.3" class="st6" width="2.3" height="14.1"/>
			<rect id="XMLID_22_" x="383.3" y="101.4" class="st6" width="8.1" height="2.2"/>
			<path id="XMLID_21_" class="st6" d="M390.1,95.8c0,0.3-0.2,0.5-0.5,0.5h-3.7c-0.3,0-0.5-0.2-0.5-0.5l0,0c0-0.3,0.2-0.5,0.5-0.5
				h3.7C389.9,95.3,390.1,95.5,390.1,95.8L390.1,95.8z"/>
		</g>
	</g>
	<path id="XMLID_20_" class="st4" d="M427.5,73.1c0,1.9-1.5,3.4-3.4,3.4h-12.9c-1.9,0-3.4-1.5-3.4-3.4l0,0c0-1.9,1.5-3.4,3.4-3.4
		h12.9C426,69.7,427.5,71.2,427.5,73.1L427.5,73.1z"/>
	<rect id="XMLID_19_" x="415.9" y="49" class="st4" width="3.6" height="24.1"/>
	<rect id="XMLID_18_" x="360" y="399" class="st4" width="112.5" height="0.9"/>
	<rect id="XMLID_17_" x="360" y="402.6" class="st4" width="112.5" height="1.1"/>
	<rect id="XMLID_16_" x="374" y="403.2" class="st4" width="4.7" height="5.8"/>
	<rect id="XMLID_15_" x="412.7" y="403.2" class="st4" width="5.4" height="5.8"/>
	<rect id="XMLID_14_" x="451.4" y="403.2" class="st4" width="4.3" height="5.8"/>
	<path id="XMLID_13_" class="st5" d="M378.7,428.2c0,2.1-1.7,3.7-3.7,3.7h-11.3c-2,0-3.7-1.7-3.7-3.7l0,0c0-2.1,1.7-3.7,3.7-3.7H375
		C377.1,424.4,378.7,426.1,378.7,428.2L378.7,428.2z"/>
	<path id="XMLID_12_" class="st5" d="M395.4,413.7c0,1-0.8,1.9-1.9,1.9h-9.8c-1,0-1.9-0.8-1.9-1.9l0,0c0-1,0.8-1.9,1.9-1.9h9.8
		C394.5,411.9,395.4,412.7,395.4,413.7L395.4,413.7z"/>
	<path id="XMLID_11_" class="st5" d="M405.5,428.2c0,2.1-1.7,3.7-3.7,3.7h-9.5c-2,0-3.7-1.7-3.7-3.7l0,0c0-2.1,1.7-3.7,3.7-3.7h9.5
		C403.8,424.4,405.5,426.1,405.5,428.2L405.5,428.2z"/>
	<path id="XMLID_10_" class="st5" d="M418,415.9c0,1.2-0.9,2.1-2.1,2.1h-11.4c-1.2,0-2.1-0.9-2.1-2.1l0,0c0-1.2,0.9-2.1,2.1-2.1
		h11.4C417,413.7,418,414.7,418,415.9L418,415.9z"/>
	<path id="XMLID_9_" class="st5" d="M414.1,394.9c0,1.1-0.9,2-2,2h-10.1c-1.1,0-2-0.9-2-2l0,0c0-1.1,0.9-2,2-2H412
		C413.1,392.9,414.1,393.8,414.1,394.9L414.1,394.9z"/>
	<path id="XMLID_8_" class="st5" d="M388.6,392.7c0,1.2-1,2.2-2.2,2.2h-12.5c-1.2,0-2.2-1-2.2-2.2l0,0c0-1.2,1-2.2,2.2-2.2h12.5
		C387.6,390.5,388.6,391.5,388.6,392.7L388.6,392.7z"/>
	<path id="XMLID_7_" class="st5" d="M448,429c0,1.6-1.3,2.9-2.9,2.9h-11.9c-1.6,0-2.9-1.3-2.9-2.9l0,0c0-1.6,1.3-2.9,2.9-2.9h11.9
		C446.8,426.1,448,427.4,448,429L448,429z"/>
	<path id="XMLID_6_" class="st5" d="M442,392.7c0,1.2-1,2.2-2.2,2.2h-7.5c-1.2,0-2.2-1-2.2-2.2l0,0c0-1.2,1-2.2,2.2-2.2h7.5
		C441,390.5,442,391.5,442,392.7L442,392.7z"/>
	<path id="XMLID_5_" class="st5" d="M451.4,418.1c0,1.4-1.1,2.5-2.5,2.5H436c-1.4,0-2.5-1.1-2.5-2.5l0,0c0-1.4,1.1-2.5,2.5-2.5h12.9
		C450.3,415.6,451.4,416.7,451.4,418.1L451.4,418.1z"/>
	<path id="XMLID_4_" class="st5" d="M426.6,422.6c0,1-0.8,1.9-1.9,1.9h-4.9c-1,0-1.9-0.8-1.9-1.9l0,0c0-1,0.8-1.9,1.9-1.9h4.9
		C425.8,420.7,426.6,421.5,426.6,422.6L426.6,422.6z"/>
	<path id="XMLID_3_" class="st5" d="M470,435.6c0,1.1-0.9,2-2,2h-10.2c-1.1,0-2-0.9-2-2l0,0c0-1.1,0.9-2,2-2H468
		C469.1,433.6,470,434.5,470,435.6L470,435.6z"/>
	<path id="XMLID_2_" class="st5" d="M468.6,411.3c0,1.3-1.1,2.4-2.4,2.4h-6.1c-1.3,0-2.4-1.1-2.4-2.4l0,0c0-1.3,1.1-2.4,2.4-2.4h6.1
		C467.6,408.9,468.6,410,468.6,411.3L468.6,411.3z"/>
	<path id="XMLID_1_" class="st5" d="M468.6,394.8c0,1.2-0.9,2.1-2.1,2.1h-6.7c-1.2,0-2.1-0.9-2.1-2.1l0,0c0-1.2,0.9-2.1,2.1-2.1h6.7
		C467.7,392.7,468.6,393.6,468.6,394.8L468.6,394.8z"/>
</g>
</svg>
