<?xml version="1.0" encoding="utf-8"?>
<!-- Generator: Adobe Illustrator 19.0.0, SVG Export Plug-In . SVG Version: 6.00 Build 0)  -->
<svg version="1.1" id="Layer_1" xmlns="http://www.w3.org/2000/svg" xmlns:xlink="http://www.w3.org/1999/xlink" x="0px" y="0px"
	 viewBox="0 0 500 500" style="enable-background:new 0 0 500 500;" xml:space="preserve">
<style type="text/css">
	.st0{fill:#FCB434;}
	.st1{fill:#506E8D;}
	.st2{fill:#34445E;}
	.st3{fill:#DB7627;}
	.st4{fill:#52362E;}
	.st5{fill:#8A644F;}
</style>
<path id="XMLID_213_" class="st0" d="M133.9,423.6c-34.2-18.2-61.1-43.3-80.6-75.3C33.9,316.1,24.1,280,24.1,239.8
	c0-40.2,9.7-76.3,29.3-108.4c19.5-32.1,46.4-57.2,80.6-75.3c34.2-18.2,72.7-27.2,115.6-27.2s81.4,9.1,115.6,27.2
	c34.2,18.2,61,43.3,80.6,75.3c19.5,32.1,29.3,68.2,29.3,108.4c0,40.2-9.8,76.3-29.3,108.4c-19.5,32.1-46.4,57.2-80.6,75.3
	c-34.2,18.2-72.7,27.2-115.6,27.2S168.1,441.7,133.9,423.6z M305.2,341.3c16.6-9.7,29.7-23.3,39.4-40.9
	c9.7-17.6,14.5-37.8,14.5-60.6c0-22.8-4.8-43-14.5-60.6c-9.7-17.6-22.8-31.2-39.4-40.9c-16.6-9.7-35.2-14.5-55.6-14.5
	c-20.5,0-39,4.8-55.6,14.5c-16.6,9.7-29.8,23.3-39.4,40.9c-9.7,17.6-14.5,37.8-14.5,60.6c0,22.8,4.8,43,14.5,60.6
	c9.7,17.6,22.8,31.2,39.4,40.9c16.6,9.7,35.2,14.5,55.6,14.5C270,355.7,288.6,350.9,305.2,341.3z"/>
<g id="XMLID_107_">
	<path id="XMLID_210_" class="st1" d="M418.4,243.5c0-93.1-75.8-168.8-168.8-168.8S80.8,150.4,80.7,243.5
		c0,93.1,75.8,168.8,168.8,168.8S418.3,336.6,418.4,243.5z M249.6,401.3c-87,0-157.8-70.8-157.8-157.8c0-87,70.8-157.8,157.8-157.8
		s157.8,70.8,157.8,157.8C407.3,330.5,336.6,401.3,249.6,401.3z"/>
	<path id="XMLID_101_" class="st1" d="M265.8,240.6l125.9-33.7c-0.2-0.9-0.5-1.8-0.8-2.7l-125.8,33.7
		C265.4,238.8,265.7,239.7,265.8,240.6z"/>
	<path id="XMLID_100_" class="st1" d="M255.2,228l33.7-125.8c-0.9-0.2-1.8-0.5-2.7-0.8l-33.7,125.9
		C253.4,227.4,254.3,227.7,255.2,228z"/>
	<path id="XMLID_99_" class="st1" d="M259,229.9l65.1-112.8c-0.8-0.5-1.6-0.9-2.4-1.4l-65.1,112.8C257.4,229,258.2,229.4,259,229.9z
		"/>
	<path id="XMLID_98_" class="st1" d="M262.2,232.9l92.1-92.1c-0.6-0.7-1.3-1.3-1.9-1.9l-92.1,92.1
		C260.9,231.5,261.6,232.1,262.2,232.9z"/>
	<path id="XMLID_97_" class="st1" d="M264.5,236.5l112.8-65.1c-0.5-0.8-0.9-1.6-1.4-2.4l-112.8,65.1
		C263.7,234.8,264.1,235.6,264.5,236.5z"/>
	<path id="XMLID_96_" class="st2" d="M426.4,229c-6,0-11.1,3.6-13.3,8.7h26.7C437.5,232.6,432.4,229,426.4,229z"/>
	<path id="XMLID_95_" class="st2" d="M420.2,211.7c6,0,11.1-3.6,13.3-8.7h-26.7C409.1,208.1,414.2,211.7,420.2,211.7z"/>
	<path id="XMLID_94_" class="st2" d="M420.2,182.6c-6,0-11.1,3.6-13.3,8.7h26.7C431.3,186.2,426.2,182.6,420.2,182.6z"/>
	<path id="XMLID_93_" class="st3" d="M433.5,191.3h-26.7c-0.8,1.8-1.2,3.8-1.2,5.8c0,2.1,0.4,4,1.2,5.8h26.7
		c0.8-1.8,1.2-3.8,1.2-5.8C434.7,195.1,434.3,193.1,433.5,191.3z"/>
	<path id="XMLID_92_" class="st2" d="M403.3,170.9c6,0,11.1-3.6,13.3-8.7H390C392.2,167.3,397.3,170.9,403.3,170.9z"/>
	<path id="XMLID_91_" class="st2" d="M403.3,141.8c-6,0-11.1,3.6-13.3,8.7h26.7C414.4,145.4,409.3,141.8,403.3,141.8z"/>
	<path id="XMLID_90_" class="st3" d="M416.6,150.5H390c-0.8,1.8-1.2,3.8-1.2,5.8s0.4,4,1.2,5.8h26.7c0.8-1.8,1.2-3.8,1.2-5.8
		S417.4,152.3,416.6,150.5z"/>
	<path id="XMLID_89_" class="st2" d="M374.2,132.9c6,0,11.1-3.6,13.3-8.7h-26.7C363.1,129.3,368.2,132.9,374.2,132.9z"/>
	<path id="XMLID_88_" class="st2" d="M374.2,103.7c-6,0-11.1,3.6-13.3,8.7h26.7C385.3,107.3,380.2,103.7,374.2,103.7z"/>
	<path id="XMLID_87_" class="st3" d="M387.5,112.5h-26.7c-0.8,1.8-1.2,3.8-1.2,5.8s0.4,4,1.2,5.8h26.7c0.8-1.8,1.2-3.8,1.2-5.8
		S388.3,114.3,387.5,112.5z"/>
	<path id="XMLID_86_" class="st2" d="M338.2,104.9c6,0,11.1-3.6,13.3-8.7h-26.7C327.1,101.3,332.2,104.9,338.2,104.9z"/>
	<path id="XMLID_85_" class="st2" d="M338.2,75.8c-6,0-11.1,3.6-13.3,8.7h26.7C349.3,79.4,344.2,75.8,338.2,75.8z"/>
	<path id="XMLID_84_" class="st3" d="M351.5,84.6h-26.7c-0.8,1.8-1.2,3.8-1.2,5.8c0,2.1,0.4,4,1.2,5.8h26.7c0.8-1.8,1.2-3.8,1.2-5.8
		C352.7,88.3,352.3,86.3,351.5,84.6z"/>
	<path id="XMLID_83_" class="st2" d="M296.5,86.8c6,0,11.1-3.6,13.3-8.7h-26.7C285.4,83.2,290.5,86.8,296.5,86.8z"/>
	<path id="XMLID_82_" class="st2" d="M296.5,57.7c-6,0-11.1,3.6-13.3,8.7h26.7C307.6,61.3,302.5,57.7,296.5,57.7z"/>
	<path id="XMLID_81_" class="st3" d="M309.8,66.4h-26.7c-0.8,1.8-1.2,3.8-1.2,5.8c0,2.1,0.4,4,1.2,5.8h26.7c0.8-1.8,1.2-3.8,1.2-5.8
		C311.1,70.1,310.6,68.2,309.8,66.4z"/>
	<path id="XMLID_80_" class="st1" d="M249.6,96.8c-0.5,0-0.9,0-1.4,0v130.3c0.5,0,0.9-0.1,1.4-0.1s0.9,0,1.4,0.1V96.8
		C250.5,96.8,250,96.8,249.6,96.8z"/>
	<path id="XMLID_79_" class="st1" d="M233.3,240.6l-125.9-33.7c0.2-0.9,0.5-1.8,0.8-2.7L234,237.9
		C233.7,238.8,233.5,239.7,233.3,240.6z"/>
	<path id="XMLID_78_" class="st1" d="M244,228l-33.7-125.8c0.9-0.2,1.8-0.5,2.7-0.8l33.7,125.9C245.7,227.4,244.8,227.7,244,228z"/>
	<path id="XMLID_77_" class="st1" d="M240.1,229.9L175,117.2c0.8-0.5,1.6-0.9,2.4-1.4l65.1,112.8C241.7,229,240.9,229.4,240.1,229.9
		z"/>
	<path id="XMLID_76_" class="st1" d="M236.9,232.9l-92.1-92.1c0.6-0.7,1.3-1.3,1.9-1.9l92.1,92.1
		C238.2,231.5,237.5,232.1,236.9,232.9z"/>
	<path id="XMLID_75_" class="st1" d="M234.6,236.5l-112.8-65.1c0.5-0.8,0.9-1.6,1.4-2.4L236,234.1
		C235.5,234.8,235,235.6,234.6,236.5z"/>
	<path id="XMLID_74_" class="st2" d="M249.6,72.2h-13.3c2.2,5.1,7.4,8.7,13.3,8.7c6,0,11.1-3.6,13.3-8.7H249.6z"/>
	<path id="XMLID_73_" class="st2" d="M72.7,229c6,0,11.1,3.6,13.3,8.7H59.4C61.6,232.6,66.7,229,72.7,229z"/>
	<path id="XMLID_72_" class="st2" d="M78.9,211.7c-6,0-11.1-3.6-13.3-8.7h26.7C90,208.1,84.9,211.7,78.9,211.7z"/>
	<path id="XMLID_71_" class="st2" d="M78.9,182.6c6,0,11.1,3.6,13.3,8.7H65.6C67.8,186.2,73,182.6,78.9,182.6z"/>
	<path id="XMLID_70_" class="st3" d="M65.6,191.3h26.7c0.8,1.8,1.2,3.8,1.2,5.8c0,2.1-0.4,4-1.2,5.8H65.6c-0.8-1.8-1.2-3.8-1.2-5.8
		C64.4,195.1,64.8,193.1,65.6,191.3z"/>
	<path id="XMLID_69_" class="st2" d="M95.8,170.9c-6,0-11.1-3.6-13.3-8.7h26.7C106.9,167.3,101.8,170.9,95.8,170.9z"/>
	<path id="XMLID_68_" class="st2" d="M95.8,141.8c6,0,11.1,3.6,13.3,8.7H82.5C84.7,145.4,89.8,141.8,95.8,141.8z"/>
	<path id="XMLID_67_" class="st3" d="M82.5,150.5h26.7c0.8,1.8,1.2,3.8,1.2,5.8s-0.4,4-1.2,5.8H82.5c-0.8-1.8-1.2-3.8-1.2-5.8
		S81.7,152.3,82.5,150.5z"/>
	<path id="XMLID_66_" class="st2" d="M124.9,132.9c-6,0-11.1-3.6-13.3-8.7h26.7C136,129.3,130.9,132.9,124.9,132.9z"/>
	<path id="XMLID_65_" class="st2" d="M124.9,103.7c6,0,11.1,3.6,13.3,8.7h-26.7C113.8,107.3,119,103.7,124.9,103.7z"/>
	<path id="XMLID_64_" class="st3" d="M111.6,112.5h26.7c0.8,1.8,1.2,3.8,1.2,5.8s-0.4,4-1.2,5.8h-26.7c-0.8-1.8-1.2-3.8-1.2-5.8
		S110.8,114.3,111.6,112.5z"/>
	<path id="XMLID_63_" class="st2" d="M160.9,104.9c-6,0-11.1-3.6-13.3-8.7h26.7C172,101.3,166.9,104.9,160.9,104.9z"/>
	<path id="XMLID_62_" class="st2" d="M160.9,75.8c6,0,11.1,3.6,13.3,8.7h-26.7C149.8,79.4,155,75.8,160.9,75.8z"/>
	<path id="XMLID_61_" class="st3" d="M147.6,84.6h26.7c0.8,1.8,1.2,3.8,1.2,5.8c0,2.1-0.4,4-1.2,5.8h-26.7c-0.8-1.8-1.2-3.8-1.2-5.8
		C146.4,88.3,146.8,86.3,147.6,84.6z"/>
	<path id="XMLID_60_" class="st2" d="M202.6,86.8c-6,0-11.1-3.6-13.3-8.7H216C213.7,83.2,208.6,86.8,202.6,86.8z"/>
	<path id="XMLID_59_" class="st2" d="M202.6,57.7c6,0,11.1,3.6,13.3,8.7h-26.7C191.5,61.3,196.6,57.7,202.6,57.7z"/>
	<path id="XMLID_58_" class="st3" d="M189.3,66.4H216c0.8,1.8,1.2,3.8,1.2,5.8c0,2.1-0.4,4-1.2,5.8h-26.7c-0.8-1.8-1.2-3.8-1.2-5.8
		C188.1,70.1,188.5,68.2,189.3,66.4z"/>
	<path id="XMLID_57_" class="st2" d="M249.6,51.8c-6,0-11.1,3.6-13.3,8.7h13.3h13.3C260.6,55.4,255.5,51.8,249.6,51.8z"/>
	<path id="XMLID_56_" class="st3" d="M262.9,60.6h-13.3h-13.3c-0.8,1.8-1.2,3.8-1.2,5.8s0.4,4,1.2,5.8h13.3h13.3
		c0.8-1.8,1.2-3.8,1.2-5.8S263.7,62.4,262.9,60.6z"/>
	<path id="XMLID_55_" class="st1" d="M396.3,243.5c0-0.5,0-0.9,0-1.3H266c0,0.4,0.1,0.9,0.1,1.3c0,0.5,0,0.9-0.1,1.3h130.3
		C396.3,244.4,396.3,244,396.3,243.5z"/>
	<path id="XMLID_54_" class="st1" d="M265.8,246.4l125.9,33.7c-0.2,0.9-0.5,1.8-0.8,2.7L265.1,249
		C265.4,248.2,265.7,247.3,265.8,246.4z"/>
	<path id="XMLID_53_" class="st1" d="M255.2,259l33.7,125.8c-0.9,0.2-1.8,0.5-2.7,0.8l-33.7-125.9
		C253.4,259.6,254.3,259.3,255.2,259z"/>
	<path id="XMLID_52_" class="st1" d="M259,257l65.1,112.8c-0.8,0.5-1.6,0.9-2.4,1.4l-65.1-112.8C257.4,258,258.2,257.6,259,257z"/>
	<path id="XMLID_51_" class="st1" d="M262.2,254.1l92.1,92.1c-0.6,0.7-1.3,1.3-1.9,1.9l-92.1-92.1
		C260.9,255.5,261.6,254.8,262.2,254.1z"/>
	<path id="XMLID_50_" class="st1" d="M264.5,250.5l112.8,65.1c-0.5,0.8-0.9,1.6-1.4,2.4l-112.8-65.1
		C263.7,252.1,264.1,251.3,264.5,250.5z"/>
	<path id="XMLID_49_" class="st3" d="M441,243.5c0-2.1-0.4-4-1.2-5.8h-26.7c-0.8,1.8-1.2,3.7-1.2,5.8c0,2.1,0.4,4.1,1.2,5.8h26.7
		C440.5,247.5,441,245.6,441,243.5z"/>
	<path id="XMLID_48_" class="st2" d="M426.4,258c-6,0-11.1-3.6-13.3-8.7h26.7C437.5,254.4,432.4,258,426.4,258z"/>
	<path id="XMLID_47_" class="st2" d="M420.2,275.3c6,0,11.1,3.6,13.3,8.7h-26.7C409.1,278.9,414.2,275.3,420.2,275.3z"/>
	<path id="XMLID_46_" class="st2" d="M420.2,304.4c-6,0-11.1-3.6-13.3-8.7h26.7C431.3,300.8,426.2,304.4,420.2,304.4z"/>
	<path id="XMLID_45_" class="st3" d="M433.5,295.7h-26.7c-0.8-1.8-1.2-3.8-1.2-5.8c0-2.1,0.4-4,1.2-5.8h26.7
		c0.8,1.8,1.2,3.8,1.2,5.8C434.7,291.9,434.3,293.9,433.5,295.7z"/>
	<path id="XMLID_44_" class="st2" d="M403.3,316.1c6,0,11.1,3.6,13.3,8.7H390C392.2,319.6,397.3,316.1,403.3,316.1z"/>
	<path id="XMLID_43_" class="st2" d="M403.3,345.2c-6,0-11.1-3.6-13.3-8.7h26.7C414.4,341.6,409.3,345.2,403.3,345.2z"/>
	<path id="XMLID_42_" class="st3" d="M416.6,336.4H390c-0.8-1.8-1.2-3.8-1.2-5.8c0-2.1,0.4-4,1.2-5.8h26.7c0.8,1.8,1.2,3.8,1.2,5.8
		C417.9,332.7,417.4,334.6,416.6,336.4z"/>
	<path id="XMLID_41_" class="st2" d="M374.2,354.1c6,0,11.1,3.6,13.3,8.7h-26.7C363.1,357.7,368.2,354.1,374.2,354.1z"/>
	<path id="XMLID_40_" class="st2" d="M374.2,383.2c-6,0-11.1-3.6-13.3-8.7h26.7C385.3,379.6,380.2,383.2,374.2,383.2z"/>
	<path id="XMLID_39_" class="st3" d="M387.5,374.5h-26.7c-0.8-1.8-1.2-3.8-1.2-5.8c0-2.1,0.4-4,1.2-5.8h26.7
		c0.8,1.8,1.2,3.8,1.2,5.8C388.8,370.8,388.3,372.7,387.5,374.5z"/>
	<path id="XMLID_38_" class="st2" d="M338.2,382c6,0,11.1,3.6,13.3,8.7h-26.7C327.1,385.6,332.2,382,338.2,382z"/>
	<path id="XMLID_37_" class="st2" d="M338.2,411.1c-6,0-11.1-3.6-13.3-8.7h26.7C349.3,407.6,344.2,411.1,338.2,411.1z"/>
	<path id="XMLID_36_" class="st3" d="M351.5,402.4h-26.7c-0.8-1.8-1.2-3.8-1.2-5.8c0-2.1,0.4-4,1.2-5.8h26.7
		c0.8,1.8,1.2,3.8,1.2,5.8C352.7,398.7,352.3,400.6,351.5,402.4z"/>
	<path id="XMLID_35_" class="st2" d="M296.5,400.2c6,0,11.1,3.6,13.3,8.7h-26.7C285.4,403.8,290.5,400.2,296.5,400.2z"/>
	<path id="XMLID_34_" class="st2" d="M296.5,429.3c-6,0-11.1-3.6-13.3-8.7h26.7C307.6,425.7,302.5,429.3,296.5,429.3z"/>
	<path id="XMLID_33_" class="st3" d="M309.8,420.6h-26.7c-0.8-1.8-1.2-3.8-1.2-5.8c0-2.1,0.4-4,1.2-5.8h26.7
		c0.8,1.8,1.2,3.8,1.2,5.8C311.1,416.8,310.6,418.8,309.8,420.6z"/>
	<path id="XMLID_32_" class="st1" d="M233.1,242.1H102.8c0,0.4,0,0.9,0,1.3c0,0.5,0,0.9,0,1.4h130.3c0-0.4-0.1-0.9-0.1-1.3
		C233,243,233.1,242.6,233.1,242.1z"/>
	<path id="XMLID_31_" class="st1" d="M249.6,390.2c-0.5,0-0.9,0-1.4,0V259.9c0.5,0,0.9,0.1,1.4,0.1s0.9,0,1.4-0.1v130.3
		C250.5,390.2,250,390.2,249.6,390.2z"/>
	<path id="XMLID_30_" class="st1" d="M233.3,246.4l-125.9,33.7c0.2,0.9,0.5,1.8,0.8,2.7L234,249
		C233.7,248.2,233.5,247.3,233.3,246.4z"/>
	<path id="XMLID_29_" class="st1" d="M244,259l-33.7,125.8c0.9,0.2,1.8,0.5,2.7,0.8l33.7-125.9C245.7,259.6,244.8,259.3,244,259z"/>
	<path id="XMLID_28_" class="st1" d="M240.1,257L175,369.8c0.8,0.5,1.6,0.9,2.4,1.4l65.1-112.8C241.7,258,240.9,257.6,240.1,257z"/>
	<path id="XMLID_27_" class="st1" d="M236.9,254.1l-92.1,92.1c0.6,0.7,1.3,1.3,1.9,1.9l92.1-92.1
		C238.2,255.5,237.5,254.8,236.9,254.1z"/>
	<path id="XMLID_26_" class="st1" d="M234.6,250.5l-112.8,65.1c0.5,0.8,0.9,1.6,1.4,2.4L236,252.9
		C235.5,252.1,235,251.3,234.6,250.5z"/>
	<path id="XMLID_131_" class="st2" d="M407.4,243.5c0-87-70.8-157.8-157.8-157.8S91.8,156.5,91.8,243.5c0,87,70.8,157.8,157.8,157.8
		S407.3,330.5,407.4,243.5z M391.7,280.1c-0.2,0.9-0.5,1.8-0.8,2.7c-3.2,11.6-7.8,22.6-13.6,32.8c-0.5,0.8-0.9,1.6-1.4,2.4
		c-6.1,10.3-13.4,19.7-21.7,28.2c-0.6,0.7-1.3,1.3-1.9,1.9c-8.5,8.3-17.9,15.6-28.2,21.7c-0.8,0.5-1.6,0.9-2.4,1.4
		c-10.2,5.8-21.3,10.4-32.8,13.6c-0.9,0.2-1.8,0.5-2.7,0.8c-11.3,2.9-23.1,4.5-35.3,4.6c-0.5,0-0.9,0-1.4,0s-0.9,0-1.4,0
		c-12.2-0.1-24-1.7-35.3-4.6c-0.9-0.2-1.8-0.5-2.7-0.8c-11.6-3.2-22.6-7.8-32.8-13.6c-0.8-0.5-1.6-0.9-2.4-1.4
		c-10.3-6.1-19.7-13.4-28.2-21.7c-0.7-0.6-1.3-1.3-1.9-1.9c-8.3-8.5-15.6-17.9-21.7-28.2c-0.5-0.8-0.9-1.6-1.4-2.4
		c-5.8-10.3-10.4-21.3-13.6-32.8c-0.2-0.9-0.5-1.8-0.8-2.7c-2.9-11.3-4.5-23.1-4.6-35.3c0-0.4,0-0.9,0-1.3c0-0.5,0-0.9,0-1.3
		c0.1-12.2,1.7-24,4.6-35.3c0.2-0.9,0.5-1.8,0.8-2.7c3.2-11.6,7.8-22.6,13.6-32.8c0.5-0.8,0.9-1.6,1.4-2.4
		c6.1-10.3,13.4-19.7,21.7-28.2c0.6-0.7,1.3-1.3,1.9-1.9c8.5-8.3,17.9-15.6,28.2-21.7c0.8-0.5,1.6-0.9,2.4-1.4
		c10.2-5.8,21.3-10.4,32.8-13.6c0.9-0.2,1.8-0.5,2.7-0.8c11.3-2.9,23.1-4.5,35.3-4.6c0.5,0,0.9,0,1.4,0s0.9,0,1.4,0
		c12.2,0.1,24,1.7,35.3,4.6c0.9,0.2,1.8,0.5,2.7,0.8c11.6,3.2,22.6,7.8,32.8,13.6c0.8,0.5,1.6,0.9,2.4,1.4
		c10.3,6.1,19.7,13.4,28.2,21.7c0.7,0.6,1.3,1.3,1.9,1.9c8.3,8.5,15.6,17.9,21.7,28.2c0.5,0.8,0.9,1.6,1.4,2.4
		c5.8,10.3,10.4,21.3,13.6,32.8c0.2,0.9,0.5,1.8,0.8,2.7c2.9,11.3,4.5,23.1,4.6,35.3c0,0.4,0,0.9,0,1.3c0,0.4,0,0.9,0,1.3
		C396.2,257,394.6,268.8,391.7,280.1z"/>
	<path id="XMLID_23_" class="st2" d="M249.6,414.8h-13.3c2.2-5.1,7.4-8.7,13.3-8.7c6,0,11.1,3.6,13.3,8.7H249.6z"/>
	<path id="XMLID_22_" class="st3" d="M87.2,243.5c0-2.1-0.4-4-1.2-5.8H59.4c-0.8,1.8-1.2,3.7-1.2,5.8c0,2.1,0.4,4.1,1.2,5.8H86
		C86.8,247.5,87.2,245.6,87.2,243.5z"/>
	<path id="XMLID_21_" class="st2" d="M72.7,258c6,0,11.1-3.6,13.3-8.7H59.4C61.6,254.4,66.7,258,72.7,258z"/>
	<path id="XMLID_20_" class="st2" d="M78.9,275.3c-6,0-11.1,3.6-13.3,8.7h26.7C90,278.9,84.9,275.3,78.9,275.3z"/>
	<path id="XMLID_19_" class="st2" d="M78.9,304.4c6,0,11.1-3.6,13.3-8.7H65.6C67.8,300.8,73,304.4,78.9,304.4z"/>
	<path id="XMLID_18_" class="st3" d="M65.6,295.7h26.7c0.8-1.8,1.2-3.8,1.2-5.8c0-2.1-0.4-4-1.2-5.8H65.6c-0.8,1.8-1.2,3.8-1.2,5.8
		C64.4,291.9,64.8,293.9,65.6,295.7z"/>
	<path id="XMLID_17_" class="st2" d="M95.8,316.1c-6,0-11.1,3.6-13.3,8.7h26.7C106.9,319.6,101.8,316.1,95.8,316.1z"/>
	<path id="XMLID_16_" class="st2" d="M95.8,345.2c6,0,11.1-3.6,13.3-8.7H82.5C84.7,341.6,89.8,345.2,95.8,345.2z"/>
	<path id="XMLID_15_" class="st3" d="M82.5,336.4h26.7c0.8-1.8,1.2-3.8,1.2-5.8c0-2.1-0.4-4-1.2-5.8H82.5c-0.8,1.8-1.2,3.8-1.2,5.8
		C81.3,332.7,81.7,334.6,82.5,336.4z"/>
	<path id="XMLID_14_" class="st2" d="M124.9,354.1c-6,0-11.1,3.6-13.3,8.7h26.7C136,357.7,130.9,354.1,124.9,354.1z"/>
	<path id="XMLID_13_" class="st2" d="M124.9,383.2c6,0,11.1-3.6,13.3-8.7h-26.7C113.8,379.6,119,383.2,124.9,383.2z"/>
	<path id="XMLID_12_" class="st3" d="M111.6,374.5h26.7c0.8-1.8,1.2-3.8,1.2-5.8c0-2.1-0.4-4-1.2-5.8h-26.7
		c-0.8,1.8-1.2,3.8-1.2,5.8C110.4,370.8,110.8,372.7,111.6,374.5z"/>
	<path id="XMLID_11_" class="st2" d="M160.9,382c-6,0-11.1,3.6-13.3,8.7h26.7C172,385.6,166.9,382,160.9,382z"/>
	<path id="XMLID_10_" class="st2" d="M160.9,411.1c6,0,11.1-3.6,13.3-8.7h-26.7C149.8,407.6,155,411.1,160.9,411.1z"/>
	<path id="XMLID_9_" class="st3" d="M147.6,402.4h26.7c0.8-1.8,1.2-3.8,1.2-5.8c0-2.1-0.4-4-1.2-5.8h-26.7c-0.8,1.8-1.2,3.8-1.2,5.8
		C146.4,398.7,146.8,400.6,147.6,402.4z"/>
	<path id="XMLID_8_" class="st2" d="M202.6,400.2c-6,0-11.1,3.6-13.3,8.7H216C213.7,403.8,208.6,400.2,202.6,400.2z"/>
	<path id="XMLID_7_" class="st2" d="M202.6,429.3c6,0,11.1-3.6,13.3-8.7h-26.7C191.5,425.7,196.6,429.3,202.6,429.3z"/>
	<path id="XMLID_6_" class="st3" d="M189.3,420.6H216c0.8-1.8,1.2-3.8,1.2-5.8c0-2.1-0.4-4-1.2-5.8h-26.7c-0.8,1.8-1.2,3.8-1.2,5.8
		C188.1,416.8,188.5,418.8,189.3,420.6z"/>
	<path id="XMLID_5_" class="st2" d="M249.6,435.1c-6,0-11.1-3.6-13.3-8.7h13.3h13.3C260.6,431.5,255.5,435.1,249.6,435.1z"/>
	<path id="XMLID_4_" class="st3" d="M262.9,426.4h-13.3h-13.3c-0.8-1.8-1.2-3.8-1.2-5.8c0-2.1,0.4-4,1.2-5.8h13.3h13.3
		c0.8,1.8,1.2,3.8,1.2,5.8C264.1,422.7,263.7,424.6,262.9,426.4z"/>
	<polygon id="XMLID_3_" class="st4" points="249.6,243.5 244.8,240.7 122.9,449.5 135.7,449.5 244,263.9 244,449.5 255.1,449.5 
		255.1,243.5 	"/>
	<rect id="XMLID_2_" x="122.9" y="449.6" class="st5" width="251.3" height="14"/>
	<path id="XMLID_1_" class="st2" d="M266.1,243.5c0-0.5,0-0.9-0.1-1.3c0-0.5-0.1-1-0.2-1.6c-0.2-0.9-0.4-1.8-0.7-2.7
		c-0.2-0.5-0.4-1-0.6-1.4c-0.4-0.8-0.8-1.6-1.4-2.4c-0.3-0.4-0.6-0.8-1-1.2c-0.6-0.7-1.2-1.4-1.9-1.9c-0.4-0.3-0.8-0.7-1.2-1
		c-0.8-0.5-1.6-1-2.4-1.4c-0.5-0.2-1-0.4-1.4-0.6c-0.9-0.3-1.7-0.6-2.7-0.7c-0.5-0.1-1-0.2-1.6-0.2c-0.5,0-0.9-0.1-1.4-0.1
		s-0.9,0-1.4,0.1c-0.5,0-1,0.1-1.6,0.2c-0.9,0.2-1.8,0.4-2.7,0.7c-0.5,0.2-1,0.4-1.4,0.6c-0.8,0.4-1.6,0.8-2.4,1.4
		c-0.4,0.3-0.8,0.6-1.2,1c-0.7,0.6-1.4,1.2-1.9,1.9c-0.3,0.4-0.7,0.8-1,1.2c-0.5,0.8-1,1.6-1.4,2.4c-0.2,0.5-0.4,1-0.6,1.4
		c-0.3,0.9-0.6,1.7-0.7,2.7c-0.1,0.5-0.2,1-0.2,1.6c0,0.4-0.1,0.9-0.1,1.3c0,0.5,0,0.9,0.1,1.4c0,0.5,0.1,1,0.2,1.6
		c0.2,0.9,0.4,1.8,0.7,2.7c0.2,0.5,0.4,1,0.6,1.4c0.4,0.8,0.8,1.6,1.4,2.4c0.3,0.4,0.6,0.8,1,1.2c0.6,0.7,1.2,1.4,1.9,1.9
		c0.4,0.3,0.8,0.7,1.2,1c0.8,0.5,1.6,1,2.4,1.4c0.5,0.2,1,0.4,1.4,0.6c0.9,0.3,1.7,0.6,2.7,0.7c0.5,0.1,1,0.2,1.6,0.2
		c0.5,0,0.9,0.1,1.4,0.1s0.9,0,1.4-0.1c0.5,0,1-0.1,1.6-0.2c0.9-0.2,1.8-0.4,2.7-0.7c0.5-0.2,1-0.4,1.4-0.6c0.8-0.4,1.6-0.8,2.4-1.4
		c0.4-0.3,0.8-0.6,1.2-1c0.7-0.6,1.4-1.2,1.9-1.9c0.3-0.4,0.7-0.8,1-1.2c0.5-0.8,1-1.6,1.4-2.4c0.2-0.5,0.4-1,0.6-1.4
		c0.3-0.9,0.6-1.7,0.7-2.7c0.1-0.5,0.2-1,0.2-1.6C266.1,244.4,266.1,244,266.1,243.5z"/>
</g>
</svg>
