<?xml version="1.0" encoding="UTF-8"?>
<svg width="30px" height="17px" viewBox="0 0 30 17" version="1.1" xmlns="http://www.w3.org/2000/svg" xmlns:xlink="http://www.w3.org/1999/xlink">
    <!-- Generator: Sketch 52.1 (67048) - http://www.bohemiancoding.com/sketch -->
    <title>text_ic</title>
    <desc>Created with Sketch.</desc>
    <g id="Page-1" stroke="none" stroke-width="1" fill="none" fill-rule="evenodd">
        <g id="Artboard" transform="translate(-36.000000, -420.000000)" fill="#FFFFFF">
            <g id="text_ic" transform="translate(36.000000, 420.000000)">
                <path d="M11.04,12.408 L3.336,12.408 L1.8,16.536 L-3.55271368e-15,16.536 L6.24,-2.84217094e-14 L8.136,-2.84217094e-14 L14.376,16.536 L12.552,16.536 L11.04,12.408 Z M10.536,11.064 L7.2,1.944 L3.816,11.064 L10.536,11.064 Z M22.248,3.264 C23.5760066,3.264 24.7079953,3.60799656 25.644,4.296 C26.5800047,4.98400344 27.2239982,5.89599432 27.576,7.032 L27.576,3.432 L29.232,3.432 L29.232,16.536 L27.576,16.536 L27.576,12.936 C27.2239982,14.0720057 26.5800047,14.9839966 25.644,15.672 C24.7079953,16.3600034 23.5760066,16.704 22.248,16.704 C21.0639941,16.704 20.0040047,16.4320027 19.068,15.888 C18.1319953,15.3439973 17.4040026,14.5640051 16.884,13.548 C16.3639974,12.5319949 16.104,11.3440068 16.104,9.984 C16.104,8.60799312 16.3639974,7.41200508 16.884,6.396 C17.4040026,5.37999492 18.1279954,4.60400268 19.056,4.068 C19.9840046,3.53199732 21.047994,3.264 22.248,3.264 Z M22.68,4.752 C21.2079926,4.752 20.0280044,5.21999532 19.14,6.156 C18.2519956,7.09200468 17.808,8.36799192 17.808,9.984 C17.808,11.6000081 18.2519956,12.8759953 19.14,13.812 C20.0280044,14.7480047 21.2079926,15.216 22.68,15.216 C23.6080046,15.216 24.4439963,15.0000022 25.188,14.568 C25.9320037,14.1359978 26.5159979,13.524004 26.94,12.732 C27.3640021,11.939996 27.576,11.0240052 27.576,9.984 C27.576,8.9439948 27.3640021,8.02800396 26.94,7.236 C26.5159979,6.44399604 25.9320037,5.83200216 25.188,5.4 C24.4439963,4.96799784 23.6080046,4.752 22.68,4.752 Z" id="Aa"></path>
            </g>
        </g>
    </g>
</svg>