<?xml version="1.0" encoding="utf-8"?>
<!-- Generator: Adobe Illustrator 19.0.0, SVG Export Plug-In . SVG Version: 6.00 Build 0)  -->
<svg version="1.1" id="Layer_1" xmlns="http://www.w3.org/2000/svg" xmlns:xlink="http://www.w3.org/1999/xlink" x="0px" y="0px"
	 viewBox="0 0 500 500" style="enable-background:new 0 0 500 500;" xml:space="preserve">
<style type="text/css">
	.st0{fill:#E6352C;}
	.st1{fill:#7ED0DC;}
	.st2{fill:#BF2C27;}
	.st3{fill:#F04A25;}
	.st4{fill:#B3B3B3;}
	.st5{fill:#644F43;}
	.st6{fill:#F29320;}
	.st7{fill:#1D1D1B;}
	.st8{fill:#FFE697;}
	.st9{fill:#F99E1C;}
	.st10{fill:#EDEDED;}
	.st11{fill:#585857;}
	.st12{fill:#3D3D3C;}
	.st13{fill:#DBDADA;}
	.st14{fill:#F6F6F6;}
	.st15{fill:#FFFFFF;}
</style>
<g id="XMLID_76_">
	<path id="XMLID_74_" class="st0" d="M456.2,130.2c0-7.6-4.8-14.8-12.1-16.9c-1.6-0.4-3.2-0.7-4.9-0.7l-366.6,0
		c-14.9,0.1-26.9,12.2-26.9,27v66.5c0,4.5,3.7,8.2,8.2,8.2l37.7,6.8l6.7-0.1c2.9-0.1,5.3,2.3,5.3,5.3l0.4,44.3
		c0.1,4.4-3.5,7.9-7.8,8l-11,0.1c-0.5,0.9-36.4,11.3-36.4,11.3c-6.8,0.8-12.2,5.8-13.8,12.5c-1.4,5.7-2.1,12-2,15.4v11l0.1,4.3v6.4
		l0.1,10.5c0,0.7,0.1,1.3,0.2,1.9c0.2,0.7,0.4,1.4,0.7,2c1.1,2.2,3.1,4,5.6,4.8l13,3.9l24.1,0.7l78.9-0.6l6.1-0.1l214.2-1.6
		l64.8-0.2l0.7-0.2l1.2-0.4l4.9-1.5c3.5-1.1,6.3-3.6,7.6-6.9c0.5-1.2,0.9-2.5,1-3.8v-1l-0.2-55.4C456,288.3,456.2,157,456.2,130.2z"
		/>
	<g id="XMLID_153_">
		<g id="XMLID_184_">
			<path id="XMLID_73_" class="st1" d="M438.7,185.9l-34.4,0c-4.2,0-7.6-3.4-7.6-7.6l-0.1-38.6c0-4.2,3.4-7.6,7.6-7.6l34.4,0
				c4.2,0,7.6,3.4,7.6,7.6l0.1,38.6C446.3,182.5,442.9,185.9,438.7,185.9z"/>
			<path id="XMLID_185_" class="st2" d="M438.7,187.6l-34.4,0c-5.1,0-9.3-4.1-9.3-9.3l-0.1-38.6c0-5.1,4.1-9.3,9.3-9.3l34.4,0
				c5.1,0,9.3,4.1,9.3,9.3l0.1,38.6C447.9,183.4,443.8,187.6,438.7,187.6z M404.2,133.9c-3.2,0-5.9,2.6-5.9,5.9l0.1,38.6
				c0,3.2,2.6,5.9,5.9,5.9l34.4,0c3.2,0,5.9-2.6,5.9-5.9l-0.1-38.6c0-3.2-2.6-5.9-5.9-5.9L404.2,133.9z"/>
		</g>
		<g id="XMLID_179_">
			<path id="XMLID_70_" class="st1" d="M381.9,186l-34.4,0c-4.2,0-7.6-3.4-7.6-7.6l-0.1-38.6c0-4.2,3.4-7.6,7.6-7.6l34.4,0
				c4.2,0,7.6,3.4,7.6,7.6l0.1,38.6C389.4,182.6,386.1,186,381.9,186z"/>
			<path id="XMLID_180_" class="st2" d="M381.9,187.7l-34.4,0c-5.1,0-9.3-4.1-9.3-9.3l-0.1-38.6c0-5.1,4.1-9.3,9.3-9.3l34.4,0
				c5.1,0,9.3,4.1,9.3,9.3l0.1,38.6C391.1,183.5,387,187.7,381.9,187.7z M347.4,134c-3.2,0-5.9,2.6-5.9,5.9l0.1,38.6
				c0,3.2,2.6,5.9,5.9,5.9l34.4,0c3.2,0,5.9-2.6,5.9-5.9l-0.1-38.6c0-3.2-2.6-5.9-5.9-5.9L347.4,134z"/>
		</g>
		<g id="XMLID_174_">
			<path id="XMLID_67_" class="st1" d="M325.1,186.6l-34.4,0c-4.2,0-7.6-3.4-7.6-7.6l-0.1-38.6c0-4.2,3.4-7.6,7.6-7.6l34.4,0
				c4.2,0,7.6,3.4,7.6,7.6l0.1,38.6C332.7,183.2,329.3,186.5,325.1,186.6z"/>
			<path id="XMLID_175_" class="st2" d="M325.1,188.2l-34.4,0c-5.1,0-9.3-4.1-9.3-9.3l-0.1-38.6c0-5.1,4.1-9.3,9.3-9.3l34.4,0
				c5.1,0,9.3,4.1,9.3,9.3l0.1,38.6C334.4,184.1,330.3,188.2,325.1,188.2z M290.6,134.5c-3.2,0-5.9,2.6-5.9,5.9l0.1,38.6
				c0,3.2,2.6,5.9,5.9,5.9l34.4,0c3.2,0,5.9-2.6,5.9-5.9l-0.1-38.6c0-3.2-2.6-5.9-5.9-5.9L290.6,134.5z"/>
		</g>
		<g id="XMLID_169_">
			<path id="XMLID_64_" class="st1" d="M268.3,186.6l-34.4,0c-4.2,0-7.6-3.4-7.6-7.6l-0.1-38.6c0-4.2,3.4-7.6,7.6-7.6l34.4,0
				c4.2,0,7.6,3.4,7.6,7.6l0.1,38.6C275.9,183.2,272.5,186.6,268.3,186.6z"/>
			<path id="XMLID_170_" class="st2" d="M268.3,188.3l-34.4,0c-5.1,0-9.3-4.1-9.3-9.3l-0.1-38.6c0-5.1,4.1-9.3,9.3-9.3l34.4,0
				c5.1,0,9.3,4.1,9.3,9.3l0.1,38.6C277.6,184.2,273.4,188.3,268.3,188.3z M233.8,134.6c-3.2,0-5.9,2.6-5.9,5.9l0.1,38.6
				c0,3.2,2.6,5.9,5.9,5.9l34.4,0c3.2,0,5.9-2.6,5.9-5.9l-0.1-38.6c0-3.2-2.6-5.9-5.9-5.9L233.8,134.6z"/>
		</g>
		<g id="XMLID_164_">
			<path id="XMLID_61_" class="st1" d="M211.5,186.7l-34.4,0c-4.2,0-7.6-3.4-7.6-7.6l-0.1-38.6c0-4.2,3.4-7.6,7.6-7.6l34.4,0
				c4.2,0,7.6,3.4,7.6,7.6l0.1,38.6C219.1,183.3,215.7,186.7,211.5,186.7z"/>
			<path id="XMLID_165_" class="st2" d="M211.5,188.4l-34.4,0c-5.1,0-9.3-4.1-9.3-9.3l-0.1-38.6c0-5.1,4.1-9.3,9.3-9.3l34.4,0
				c5.1,0,9.3,4.1,9.3,9.3l0.1,38.6C220.8,184.2,216.6,188.4,211.5,188.4z M177,134.7c-3.2,0-5.9,2.6-5.9,5.9l0.1,38.6
				c0,3.2,2.6,5.9,5.9,5.9l34.4,0c3.2,0,5.9-2.6,5.9-5.9l-0.1-38.6c0-3.2-2.6-5.9-5.9-5.9L177,134.7z"/>
		</g>
		<g id="XMLID_159_">
			<path id="XMLID_58_" class="st1" d="M154.6,186.3l-34.4,0c-4.2,0-7.6-3.4-7.6-7.6l-0.1-38.6c0-4.2,3.4-7.6,7.6-7.6l34.4,0
				c4.2,0,7.6,3.4,7.6,7.6l0.1,38.6C162.2,182.9,158.8,186.3,154.6,186.3z"/>
			<path id="XMLID_160_" class="st2" d="M154.6,188l-34.4,0c-5.1,0-9.3-4.1-9.3-9.3l-0.1-38.6c0-5.1,4.1-9.3,9.3-9.3l34.4,0
				c5.1,0,9.3,4.1,9.3,9.3l0.1,38.6C163.9,183.8,159.7,188,154.6,188z M120.1,134.3c-3.2,0-5.9,2.6-5.9,5.9l0.1,38.6
				c0,3.2,2.6,5.9,5.9,5.9l34.4,0c3.2,0,5.9-2.6,5.9-5.9l-0.1-38.6c0-3.2-2.6-5.9-5.9-5.9L120.1,134.3z"/>
		</g>
		<g id="XMLID_154_">
			<path id="XMLID_55_" class="st1" d="M97.7,185.9l-34.4,0c-4.2,0-7.6-3.4-7.6-7.6l-0.1-38.6c0-4.2,3.4-7.6,7.6-7.6l34.4,0
				c4.2,0,7.6,3.4,7.6,7.6l0.1,38.6C105.3,182.5,101.9,185.9,97.7,185.9z"/>
			<path id="XMLID_155_" class="st2" d="M97.7,187.6l-34.4,0c-5.1,0-9.3-4.1-9.3-9.3L54,139.8c0-5.1,4.1-9.3,9.3-9.3l34.4,0
				c5.1,0,9.3,4.1,9.3,9.3l0.1,38.6C107,183.4,102.9,187.6,97.7,187.6z M63.2,133.9c-3.2,0-5.9,2.6-5.9,5.9l0.1,38.6
				c0,3.2,2.6,5.9,5.9,5.9l34.4,0c3.2,0,5.9-2.6,5.9-5.9l-0.1-38.6c0-3.2-2.6-5.9-5.9-5.9L63.2,133.9z"/>
		</g>
	</g>
	<path id="XMLID_52_" class="st3" d="M458.7,286.9c5.1-0.3,5.3,20,0.3,20C458.4,303.2,458.3,290.6,458.7,286.9z"/>
	
		<rect id="XMLID_51_" x="455.6" y="286.9" transform="matrix(-1 8.623343e-03 -8.623343e-03 -1 916.9287 589.8535)" class="st4" width="3.2" height="20"/>
	<path id="XMLID_50_" class="st5" d="M446,348.3c0,1.8-0.1,3.6-0.3,5.3c-0.3,2.1-0.7,4.1-1.4,6.1l-1.7,0l-64.4,0.3l-2.2-0.7l-2-0.6
		c-0.8-2.8-1.3-5.8-1.4-8.9c0-0.3,0-0.6,0-0.9c-0.2-20.3,16.1-36.9,36.4-37C429.2,311.7,445.8,328,446,348.3z"/>
	<path id="XMLID_49_" class="st5" d="M127.5,351.6v0.3c0,1.7-0.1,3.4-0.3,5c-0.3,2.1-0.8,4.1-1.4,6.1v0.1h-1.8l-9.7,0.1l-41.7,0.2
		l-14.6-0.4l-0.7-0.2l-2-0.6c-0.8-2.9-1.3-5.8-1.4-8.9V352c-0.1-20.1,16.2-36.6,36.4-36.7C110.8,315.1,127.3,331.4,127.5,351.6z"/>
	<path id="XMLID_48_" class="st6" d="M96.2,276.8c3.3,0,6-2.8,6-6.1C102.2,274,99.5,276.8,96.2,276.8z"/>
	<path id="XMLID_47_" class="st1" d="M96.2,276.8c3.3,0,6-2.8,6-6.1l-0.4-44.3c0-1.9-1.6-3.4-3.5-3.4l-5.4,0
		c-1.3,18.1-3.1,33.5-4.5,53L96.2,276.8z"/>
	<path id="XMLID_46_" class="st2" d="M99,220.8l-7.2,0.1c-0.7,1.1-0.3,2.7,0.6,3.4l6.6-0.1c1,0,1.9,0.8,1.9,1.8l0.4,45.1
		c0,2.4-2,4.4-4.6,4.4l-8.2,0.1c0-0.2-2.4,0.9-3.5,3.6l11.8-0.3c4.6,0,8.2-3.6,8.2-7.9l-0.4-45.1C104.5,223.1,102,220.8,99,220.8z"
		/>
	<path id="XMLID_45_" class="st7" d="M123.5,355.4l0.1,7.7L57,362.7l-0.1-6.7c-0.2-18.3,14.6-33.3,32.9-33.4l0.4,0
		C108.4,322.5,123.4,337.1,123.5,355.4z"/>
	<path id="XMLID_44_" class="st7" d="M442.6,352l0.1,8.3l-1.8,0.6l-64.8,0.3l-0.1-8.5c-0.2-18.3,14.6-33.3,32.9-33.4l0.4,0
		C427.5,319.1,442.4,333.8,442.6,352z"/>
	<g id="XMLID_141_">
		<path id="XMLID_43_" class="st2" d="M98.6,302.6c0,6.6-41.9,12.5-56,12.6c-6.1,0-9.9-0.9-11.5-2.5c-2.1-2.2-0.7-5.6-0.7-9.4
			c0-3.7-1.3-7.3,0.6-9.5c1.5-1.7,5.3-2.5,11.5-2.6C56.6,291.1,98.5,296,98.6,302.6z"/>
		<path id="XMLID_42_" class="st8" d="M31.1,293.7c-4.8-0.2-4.7,18.9,0.1,18.9C31.6,309.1,31.6,297.3,31.1,293.7z"/>
	</g>
	<g id="XMLID_139_">
		<path id="XMLID_41_" class="st5" d="M439.5,320.3c0.1,3.8,5.6,7,14,6.9c3.6,0,7.4-0.6,8.3-1.6c1.2-1.3,1-9.7-0.1-10.9
			c-0.9-1-4.6-1.4-8.3-1.4C444.9,313.4,439.5,316.5,439.5,320.3z"/>
	</g>
	<path id="XMLID_136_" class="st9" d="M151.8,278l-34.4,0.3c-5.1,0-9.3-4.1-9.3-9.2l-0.3-38.6c0-5.1,4.1-9.3,9.2-9.3l34.4-0.3
		c5.1,0,9.3,4.1,9.3,9.2l0.3,38.6C161.1,273.8,156.9,278,151.8,278z M116.9,224.6c-3.2,0-5.9,2.7-5.8,5.9l0.3,38.6
		c0,3.2,2.7,5.9,5.9,5.8l34.4-0.3c3.2,0,5.9-2.7,5.8-5.9l-0.3-38.6c0-3.2-2.7-5.9-5.9-5.8L116.9,224.6z"/>
	<g id="XMLID_105_">
		<path id="XMLID_38_" class="st2" d="M162.6,341.2c0,1.9-0.8,3.8-2.2,5.2c-1.4,1.4-3.2,2.1-5.2,2.1l-10.5,0c-4.1,0-7.5-3.1-7.9-7.2
			c-1.9-19.5-14.7-26.7-24.6-29.3c-2.9-0.7-5-3.4-5-6.4l0.1-75.7c0-5.3,4.3-9.5,9.5-9.5l35.7,0.1c5.6,0,10.1,4.5,10.1,10.1
			L162.6,341.2z"/>
		<path id="XMLID_37_" class="st1" d="M151.8,276.1l-34.4-0.1c-4.2,0-7.6-3.4-7.6-7.6l0.1-38.6c0-4.2,3.4-7.6,7.6-7.6l34.4,0.1
			c4.2,0,7.6,3.4,7.6,7.6l-0.1,38.6C159.4,272.7,156,276.1,151.8,276.1z"/>
		<g id="XMLID_127_">
			<path id="XMLID_36_" class="st1" d="M438.5,276l-34.4-0.1c-4.2,0-7.6-3.4-7.6-7.6l0.1-38.6c0-4.2,3.4-7.6,7.6-7.6l34.4,0.1
				c4.2,0,7.6,3.4,7.6,7.6l-0.1,38.6C446.1,272.6,442.7,276,438.5,276z"/>
			<path id="XMLID_128_" class="st2" d="M438.5,277.7l-34.4-0.1c-5.1,0-9.3-4.2-9.3-9.3l0.1-38.6c0-5.1,4.2-9.3,9.3-9.3l34.4,0.1
				c5.1,0,9.3,4.2,9.3,9.3l-0.1,38.6C447.8,273.6,443.6,277.7,438.5,277.7z M404.2,223.9c-3.2,0-5.9,2.6-5.9,5.9l-0.1,38.6
				c0,3.2,2.6,5.9,5.9,5.9l34.4,0.1c3.2,0,5.9-2.6,5.9-5.9l0.1-38.6c0-3.2-2.6-5.9-5.9-5.9L404.2,223.9z"/>
		</g>
		<g id="XMLID_122_">
			<path id="XMLID_33_" class="st1" d="M381.7,275.9l-34.4-0.1c-4.2,0-7.6-3.4-7.6-7.6l0.1-38.6c0-4.2,3.4-7.6,7.6-7.6l34.4,0.1
				c4.2,0,7.6,3.4,7.6,7.6l-0.1,38.6C389.3,272.6,385.9,275.9,381.7,275.9z"/>
			<path id="XMLID_123_" class="st2" d="M381.7,277.6l-34.4-0.1c-5.1,0-9.3-4.2-9.3-9.3l0.1-38.6c0-5.1,4.2-9.3,9.3-9.3l34.4,0.1
				c5.1,0,9.3,4.2,9.3,9.3l-0.1,38.6C391,273.5,386.8,277.6,381.7,277.6z M347.3,223.8c-3.2,0-5.9,2.6-5.9,5.9l-0.1,38.6
				c0,3.2,2.6,5.9,5.9,5.9l34.4,0.1c3.2,0,5.9-2.6,5.9-5.9l0.1-38.6c0-3.2-2.6-5.9-5.9-5.9L347.3,223.8z"/>
		</g>
		<g id="XMLID_117_">
			<path id="XMLID_30_" class="st1" d="M325,276.3l-34.4-0.1c-4.2,0-7.6-3.4-7.6-7.6l0.1-38.6c0-4.2,3.4-7.6,7.6-7.6l34.4,0.1
				c4.2,0,7.6,3.4,7.6,7.6l-0.1,38.6C332.6,273,329.2,276.3,325,276.3z"/>
			<path id="XMLID_118_" class="st2" d="M325,278l-34.4-0.1c-5.1,0-9.3-4.2-9.3-9.3l0.1-38.6c0-5.1,4.2-9.3,9.3-9.3l34.4,0.1
				c5.1,0,9.3,4.2,9.3,9.3l-0.1,38.6C334.3,273.9,330.1,278,325,278z M290.6,224.2c-3.2,0-5.9,2.6-5.9,5.9l-0.1,38.6
				c0,3.2,2.6,5.9,5.9,5.9l34.4,0.1c3.2,0,5.9-2.6,5.9-5.9l0.1-38.6c0-3.2-2.6-5.9-5.9-5.9L290.6,224.2z"/>
		</g>
		<g id="XMLID_112_">
			<path id="XMLID_27_" class="st1" d="M268.2,276.3l-34.4-0.1c-4.2,0-7.6-3.4-7.6-7.6l0.1-38.6c0-4.2,3.4-7.6,7.6-7.6l34.4,0.1
				c4.2,0,7.6,3.4,7.6,7.6l-0.1,38.6C275.7,272.9,272.3,276.3,268.2,276.3z"/>
			<path id="XMLID_113_" class="st2" d="M268.2,277.9l-34.4-0.1c-5.1,0-9.3-4.2-9.3-9.3l0.1-38.6c0-5.1,4.2-9.3,9.3-9.3l34.4,0.1
				c5.1,0,9.3,4.2,9.3,9.3l-0.1,38.6C277.4,273.8,273.3,278,268.2,277.9z M233.8,224.1c-3.2,0-5.9,2.6-5.9,5.9l-0.1,38.6
				c0,3.2,2.6,5.9,5.9,5.9l34.4,0.1c3.2,0,5.9-2.6,5.9-5.9l0.1-38.6c0-3.2-2.6-5.9-5.9-5.9L233.8,224.1z"/>
		</g>
		<g id="XMLID_107_">
			<path id="XMLID_24_" class="st1" d="M211.4,276.2l-34.4-0.1c-4.2,0-7.6-3.4-7.6-7.6l0.1-38.6c0-4.2,3.4-7.6,7.6-7.6l34.4,0.1
				c4.2,0,7.6,3.4,7.6,7.6l-0.1,38.6C218.9,272.8,215.5,276.2,211.4,276.2z"/>
			<path id="XMLID_108_" class="st2" d="M211.3,277.9l-34.4-0.1c-5.1,0-9.3-4.2-9.3-9.3l0.1-38.6c0-5.1,4.2-9.3,9.3-9.3l34.4,0.1
				c5.1,0,9.3,4.2,9.3,9.3l-0.1,38.6C220.6,273.7,216.5,277.9,211.3,277.9z M177,224c-3.2,0-5.9,2.6-5.9,5.9l-0.1,38.6
				c0,3.2,2.6,5.9,5.9,5.9l34.4,0.1c3.2,0,5.9-2.6,5.9-5.9l0.1-38.6c0-3.2-2.6-5.9-5.9-5.9L177,224z"/>
		</g>
		
			<ellipse id="XMLID_21_" transform="matrix(1 1.474727e-03 -1.474727e-03 1 0.4251 -0.2165)" class="st10" cx="147" cy="288.1" rx="9.6" ry="1.6"/>
	</g>
	<path id="XMLID_20_" class="st8" d="M461,314.2c3-0.2,3.1,11.7,0.2,11.7C460.8,323.8,460.7,316.4,461,314.2z"/>
	<path id="XMLID_19_" class="st5" d="M46.4,324.6c0,1.2-1,2.2-2.2,2.2L33,326.9l0-4.3l11.3-0.1C45.4,322.4,46.4,323.4,46.4,324.6z"
		/>
	<path id="XMLID_18_" class="st5" d="M46.5,330.9c0,1.2-1,2.2-2.2,2.2L33,333.2l0-4.3l11.3-0.1C45.5,328.8,46.5,329.7,46.5,330.9z"
		/>
	<path id="XMLID_17_" class="st5" d="M46.5,337.2c0,1.2-1,2.2-2.2,2.2L33,339.5l0-4.3l11.3-0.1C45.5,335.1,46.5,336.1,46.5,337.2z"
		/>
	<path id="XMLID_16_" class="st11" d="M114.7,276c0,0.5-0.2,1-0.5,1.3s-0.8,0.6-1.3,0.6l-6,0.1c-1,0-1.9-0.8-1.9-1.9l-0.2-23.7
		c0-0.8,0.3-1.5,0.8-2c0.5-0.5,1.2-0.8,2-0.8l4.3,0c1.5,0,2.6,1.2,2.7,2.6L114.7,276z"/>
	<path id="XMLID_15_" class="st12" d="M97.3,288.6c-0.3,0-0.5-0.1-0.8-0.2c-0.8-0.4-1.2-1.4-0.7-2.3l11.1-22
		c0.4-0.8,1.4-1.2,2.3-0.7c0.8,0.4,1.2,1.4,0.7,2.3l-11.1,22C98.5,288.3,97.9,288.6,97.3,288.6z"/>
	<path id="XMLID_14_" class="st5" d="M58.1,362.9l-5.4-0.2l-13-3.9c-2.5-0.8-4.5-2.6-5.6-4.8c-0.3-0.7-0.5-1.3-0.7-2h20.7v1.3
		c0.1,3.1,0.5,6,1.4,8.9l2,0.6L58.1,362.9z"/>
	<path id="XMLID_13_" class="st5" d="M376,352H127.5c0,1.7-0.1,3.4-0.3,5c-0.3,2.1-0.8,4.1-1.4,6.1l29.8-0.2l6.1-0.1l214.2-1.6
		L376,352z"/>
	<path id="XMLID_12_" class="st5" d="M455.2,352c-1.4,3.2-4.1,5.8-7.6,6.9l-4.9,1.5l-1.2,0.4l0.7-4.2l0.3-4.5H455.2z"/>
	<g id="XMLID_88_">
		<path id="XMLID_11_" class="st13" d="M67.6,357.3c0.1,12.8,10.5,23.1,23.4,23c12.8-0.1,23.1-10.6,23-23.4
			c-0.1-12.8-10.6-23.1-23.3-23C77.8,334.1,67.5,344.5,67.6,357.3z"/>
		<path id="XMLID_10_" class="st14" d="M78.7,357.2c0.1,6.7,5.5,12,12.2,12c6.7-0.1,12-5.5,11.9-12.2c-0.1-6.7-5.5-12-12.2-11.9
			C84,345.1,78.7,350.6,78.7,357.2z"/>
		<path id="XMLID_89_" class="st12" d="M90.5,326.9c-16.7,0.1-30.1,13.8-30,30.5c0.1,16.7,13.8,30.1,30.5,30
			c16.7-0.1,30.1-13.8,30-30.5C120.9,340.2,107.2,326.7,90.5,326.9z M91,377.7c-11.3,0.1-20.6-9-20.7-20.4
			c-0.1-11.3,9-20.6,20.4-20.7c11.3-0.1,20.6,9,20.7,20.4C111.4,368.3,102.3,377.6,91,377.7z"/>
	</g>
	<g id="XMLID_82_">
		<path id="XMLID_7_" class="st13" d="M386.1,357.3c0.1,12.8,10.5,23.1,23.4,23c12.8-0.1,23.1-10.6,23-23.4
			c-0.1-12.8-10.6-23.1-23.3-23C396.3,334.1,386,344.5,386.1,357.3z"/>
		<path id="XMLID_6_" class="st14" d="M397.2,357.2c0.1,6.7,5.5,12,12.2,12c6.7-0.1,12-5.5,11.9-12.2c-0.1-6.7-5.5-12-12.2-11.9
			C402.5,345.1,397.2,350.6,397.2,357.2z"/>
		<path id="XMLID_83_" class="st12" d="M409,326.9c-16.7,0.1-30.1,13.8-30,30.5c0.1,16.7,13.8,30.1,30.5,30
			c16.7-0.1,30.1-13.8,30-30.5C439.4,340.2,425.7,326.7,409,326.9z M409.5,377.7c-11.3,0.1-20.6-9-20.7-20.4
			c-0.1-11.3,9-20.6,20.4-20.7c11.3-0.1,20.6,9,20.7,20.4C429.9,368.3,420.8,377.6,409.5,377.7z"/>
	</g>
	<g id="XMLID_80_">
		<path id="XMLID_3_" class="st10" d="M447.1,347.4c0,3.2,2.7,5.8,5.9,5.8l5.9-0.1c3.2,0,5.8-2.7,5.8-5.9l0,0c0-3.2-2.7-5.8-5.9-5.8
			l-5.9,0.1C449.7,341.5,447.1,344.2,447.1,347.4L447.1,347.4z"/>
	</g>
	<g id="XMLID_78_">
		<path id="XMLID_2_" class="st10" d="M47.4,349.4c0,3.2-2.6,5.9-5.8,5.9l-9.7,0.1c-3.2,0-5.9-2.6-5.9-5.8l0,0
			c0-3.2,2.6-5.9,5.8-5.9l9.7-0.1C44.7,343.6,47.4,346.2,47.4,349.4L47.4,349.4z"/>
	</g>
	<path id="XMLID_1_" class="st15" d="M446,204.4c0,5.3-4.3,9.5-9.5,9.5H124.2c-5.3,0-9.5-4.3-9.5-9.5l0,0c0-5.3,4.3-9.5,9.5-9.5
		h312.2C441.7,194.9,446,199.2,446,204.4L446,204.4z"/>
</g>
</svg>
