<?xml version="1.0" encoding="utf-8"?>
<!-- Generator: Adobe Illustrator 19.0.0, SVG Export Plug-In . SVG Version: 6.00 Build 0)  -->
<svg version="1.1" id="Layer_1" xmlns="http://www.w3.org/2000/svg" xmlns:xlink="http://www.w3.org/1999/xlink" x="0px" y="0px"
	 viewBox="0 0 500 500" style="enable-background:new 0 0 500 500;" xml:space="preserve">
<style type="text/css">
	.st0{fill:#34445E;}
	.st1{fill:#DB7627;}
	.st2{fill:#89181B;}
	.st3{fill:#FCB434;}
	.st4{fill:#D32527;}
</style>
<g id="XMLID_22_">
	<rect id="XMLID_20_" x="102.3" y="419.7" class="st0" width="300" height="56.3"/>
	
		<rect id="XMLID_19_" x="235.2" y="430.8" transform="matrix(0.7071 -0.7071 0.7071 0.7071 -242.7805 309.5806)" class="st1" width="34.1" height="34.1"/>
	
		<rect id="XMLID_18_" x="121" y="430.8" transform="matrix(0.7071 -0.7071 0.7071 0.7071 -276.2371 228.8094)" class="st1" width="34.1" height="34.1"/>
	
		<rect id="XMLID_17_" x="349.5" y="430.8" transform="matrix(0.7071 -0.7071 0.7071 0.7071 -209.324 390.3518)" class="st1" width="34.1" height="34.1"/>
	<circle id="XMLID_16_" class="st1" cx="195.2" cy="447.9" r="15.3"/>
	<circle id="XMLID_15_" class="st1" cx="309.4" cy="447.9" r="15.3"/>
	<path id="XMLID_14_" class="st2" d="M426.1,315.9c-2.2-21-14.5-39-36.4-53.3c-15.4-10.1-31.9-16.8-49.3-23.9
		c-20.2-8.2-41.8-17.1-62.6-32l-25.4-18.3l-25.5,17.3c-20.6,14.8-42.2,23.9-62.3,32.4c-17.5,7.4-34.1,14.4-49.6,24.5
		c-21.9,14.3-34.2,32.3-36.4,53.3c-2.7,25.2,9,65.4,55.3,103.8h93.1h25.5h25.4h94.3C419.1,376.6,428.7,341.1,426.1,315.9z"/>
	<path id="XMLID_13_" class="st1" d="M402.3,243.2c-50.8-33.2-108.2-32.4-150-96.4c-41.8,61.7-99.2,63.2-150,96.4
		c-64.7,42.3-61.3,114.6,0,176.5h31.5c-46.3-38.4-57.9-78.6-55.3-103.8c2.2-21,14.5-39,36.4-53.3c15.5-10.1,32.1-17.1,49.6-24.5
		c20.1-8.5,41.6-17.6,62.3-32.4l9.2,119l-9.2,95h50.9l-9.2-95l9.2-118c20.7,14.9,42.4,23.8,62.6,32c17.4,7.1,33.9,13.8,49.3,23.9
		c21.9,14.3,34.2,32.3,36.4,53.3c2.7,25.2-6.9,60.7-54,103.8h30.2C463.6,357.8,467,285.5,402.3,243.2z"/>
	<circle id="XMLID_12_" class="st0" cx="252.3" cy="143.6" r="38.9"/>
	<polygon id="XMLID_11_" class="st1" points="208,28.7 208,97.8 242.5,63.3 	"/>
	<polygon id="XMLID_10_" class="st1" points="296.6,97.8 296.6,28.7 262.1,63.3 	"/>
	<polygon id="XMLID_9_" class="st1" points="286.8,18.9 217.8,18.9 252.3,53.5 	"/>
	<polygon id="XMLID_8_" class="st1" points="217.8,107.6 286.8,107.6 252.3,73.1 	"/>
	<rect id="XMLID_7_" x="230.2" y="41.1" class="st0" width="44.3" height="44.3"/>
	<polygon id="XMLID_6_" class="st3" points="178.8,267.5 178.8,381.9 236,324.7 	"/>
	<polygon id="XMLID_5_" class="st3" points="325.8,381.9 325.8,267.5 268.6,324.7 	"/>
	<polygon id="XMLID_4_" class="st3" points="309.5,251.2 195.1,251.2 252.3,308.4 	"/>
	<polygon id="XMLID_3_" class="st3" points="195.1,398.2 309.5,398.2 252.3,341 	"/>
	<circle id="XMLID_2_" class="st0" cx="252.3" cy="322.2" r="38.9"/>
	<circle id="XMLID_1_" class="st4" cx="252.3" cy="322.2" r="22.1"/>
</g>
</svg>
