<?xml version="1.0" encoding="utf-8"?>
<!-- Generator: Adobe Illustrator 19.0.0, SVG Export Plug-In . SVG Version: 6.00 Build 0)  -->
<svg version="1.1" id="Layer_1" xmlns="http://www.w3.org/2000/svg" xmlns:xlink="http://www.w3.org/1999/xlink" x="0px" y="0px"
	 viewBox="0 0 500 500" style="enable-background:new 0 0 500 500;" xml:space="preserve">
<style type="text/css">
	.st0{fill:#D32527;}
	.st1{fill:#89181B;}
	.st2{fill:#8BA8BF;}
	.st3{fill:#506E8D;}
</style>
<g id="XMLID_53_">
	<path id="XMLID_92_" class="st0" d="M142,126.4v355.7h194.8V126.4H142z M189.8,389.5H289v44.7h-99.3V389.5z M253.5,272.7v41.9
		h-28.2v-41.9H253.5z M225.3,265.3v-41.9h28.2v41.9H225.3z M253.5,321.9v41.9h-28.2v-41.9H253.5z M225.3,174.2h28.2v41.9h-28.2
		V174.2z M260.8,174.2H289v41.9h-28.2V174.2z M289,223.4v41.9h-28.2v-41.9H289z M289,272.7v41.9h-28.2v-41.9H289z M289,321.9v41.9
		h-28.2v-41.9H289z M189.8,321.9h28.2v41.9h-28.2V321.9z M189.8,272.7h28.2v41.9h-28.2V272.7z M189.8,223.4h28.2v41.9h-28.2V223.4z
		 M189.8,174.2h28.2v41.9h-28.2V174.2z M153,137.4h172.8V471h-11v-11V148.4H164V460v11h-11V137.4z"/>
	<rect id="XMLID_36_" x="197.1" y="396.9" class="st0" width="84.6" height="30"/>
	<path id="XMLID_88_" class="st1" d="M289,389.5h-99.3v44.7H289V389.5z M281.7,426.9h-84.6v-30h84.6V426.9z"/>
	<polygon id="XMLID_33_" class="st1" points="175.1,471 182.4,471 182.4,166.8 296.4,166.8 296.4,471 303.7,471 303.7,159.5 
		175.1,159.5 	"/>
	<polygon id="XMLID_32_" class="st1" points="153,137.4 325.8,137.4 325.8,471 314.8,471 314.8,460 314.8,148.4 164,148.4 164,460 
		164,471 153,471 	"/>
	<path id="XMLID_31_" class="st1" d="M131.2,481.9c0-6,4.8-10.9,10.7-10.9h194.8c5.9,0,10.7,4.9,10.7,10.9
		C347.5,482.1,131.3,482.1,131.2,481.9z"/>
	<rect id="XMLID_30_" x="225.3" y="272.7" class="st2" width="28.2" height="41.9"/>
	<rect id="XMLID_29_" x="225.3" y="223.4" class="st2" width="28.2" height="41.9"/>
	<polygon id="XMLID_28_" class="st3" points="217.9,341.1 217.9,363.8 189.8,363.8 189.8,321.9 201.7,321.9 201.7,341.1 	"/>
	<rect id="XMLID_27_" x="225.3" y="341.1" class="st3" width="28.2" height="22.7"/>
	<polygon id="XMLID_26_" class="st3" points="277.1,321.9 289,321.9 289,363.8 260.8,363.8 260.8,341.1 277.1,341.1 	"/>
	<rect id="XMLID_25_" x="277.1" y="272.7" class="st3" width="11.9" height="41.9"/>
	<polygon id="XMLID_24_" class="st3" points="201.7,216.1 189.8,216.1 189.8,174.2 217.9,174.2 217.9,196.9 201.7,196.9 	"/>
	<rect id="XMLID_23_" x="189.8" y="272.7" class="st3" width="11.9" height="41.9"/>
	<rect id="XMLID_22_" x="189.8" y="223.4" class="st3" width="11.9" height="41.9"/>
	<rect id="XMLID_21_" x="225.3" y="174.2" class="st3" width="28.2" height="22.7"/>
	<polygon id="XMLID_20_" class="st3" points="260.8,196.9 260.8,174.2 289,174.2 289,216.1 277.1,216.1 277.1,196.9 	"/>
	<rect id="XMLID_19_" x="277.1" y="223.4" class="st3" width="11.9" height="41.9"/>
	<rect id="XMLID_18_" x="201.7" y="321.9" class="st2" width="16.3" height="19.2"/>
	<rect id="XMLID_17_" x="225.3" y="321.9" class="st2" width="28.2" height="19.2"/>
	<rect id="XMLID_16_" x="260.8" y="321.9" class="st2" width="16.3" height="19.2"/>
	<rect id="XMLID_15_" x="260.8" y="272.7" class="st2" width="16.3" height="41.9"/>
	<rect id="XMLID_14_" x="201.7" y="196.9" class="st2" width="16.3" height="19.2"/>
	<rect id="XMLID_13_" x="201.7" y="272.7" class="st2" width="16.3" height="41.9"/>
	<rect id="XMLID_12_" x="201.7" y="223.4" class="st2" width="16.3" height="41.9"/>
	<rect id="XMLID_11_" x="225.3" y="196.9" class="st2" width="28.2" height="19.2"/>
	<rect id="XMLID_10_" x="260.8" y="196.9" class="st2" width="16.3" height="19.2"/>
	<rect id="XMLID_9_" x="260.8" y="223.4" class="st2" width="16.3" height="41.9"/>
	<rect id="XMLID_8_" x="158.5" y="100.3" class="st1" width="161.8" height="26"/>
	<polygon id="XMLID_7_" class="st0" points="336.8,66.6 336.8,100.3 309.7,100.3 169.1,100.3 142,100.3 142,66.6 	"/>
	<path id="XMLID_6_" class="st0" d="M239.4,34.7c34.2,0,64.2,8.8,81.6,22.1H157.8C175.2,43.5,205.2,34.7,239.4,34.7z"/>
	<path id="XMLID_57_" class="st1" d="M142,66.6h5.9h182.9h5.9c0-26.9-43.6-48.7-97.4-48.7C185.6,17.9,142,39.7,142,66.6z
		 M157.8,56.8c17.4-13.3,47.4-22.1,81.6-22.1s64.2,8.8,81.6,22.1H157.8z"/>
	<path id="XMLID_3_" class="st2" d="M178.8,280.4c3.9,0,7.1,3.2,7.1,7.1v12.2c0,3.9-3.2,7.1-7.1,7.1c-3.9,0-7.1-3.2-7.1-7.1v-12.2
		C171.7,283.6,174.9,280.4,178.8,280.4z"/>
	<path id="XMLID_2_" class="st3" d="M178.8,286.3c1.2,0,2.2,1,2.2,2.2v10.3c0,1.2-1,2.2-2.2,2.2c-1.2,0-2.2-1-2.2-2.2v-10.3
		C176.6,287.3,177.6,286.3,178.8,286.3z"/>
	<rect id="XMLID_1_" x="193.9" y="106.8" class="st0" width="91" height="13.2"/>
</g>
</svg>
