<?xml version="1.0" encoding="UTF-8"?>
<svg width="143px" height="46px" viewBox="0 0 143 46" version="1.1" xmlns="http://www.w3.org/2000/svg" xmlns:xlink="http://www.w3.org/1999/xlink">
    <title>Group 22</title>
    <g id="Page-1" stroke="none" stroke-width="1" fill="none" fill-rule="evenodd">
        <g id="Home-" transform="translate(-1093.000000, -3983.000000)">
            <g id="Group-22" transform="translate(1093.000000, 3983.000000)">
                <g id="Rectangle-8" fill="#FFFFFF">
                    <rect id="Rectangle" x="0" y="0" width="143" height="45.9" rx="7.2"></rect>
                </g>
                <g id="ant-design:apple-filled" transform="translate(6.000000, 5.000000)" fill-rule="nonzero">
                    <g id="Icon" fill="#000000">
                        <path d="M24.0861328,17.2637695 C24.0732422,15.065918 25.069043,13.4094727 27.0799805,12.1880859 C25.9552734,10.5767578 24.2537109,9.69052734 22.0107422,9.51972656 C19.8870117,9.35214844 17.5634766,10.7572266 16.7126953,10.7572266 C15.8135742,10.7572266 13.7575195,9.57773438 12.1397461,9.57773438 C8.80107422,9.62929688 5.25292969,12.2396484 5.25292969,17.5505859 C5.25292969,19.1200195 5.53974609,20.7410156 6.11337891,22.4103516 C6.88037109,24.6082031 9.64541016,29.9932617 12.5296875,29.90625 C14.0378906,29.8708008 15.1045898,28.8363281 17.0671875,28.8363281 C18.9717773,28.8363281 19.9579102,29.90625 21.6401367,29.90625 C24.5501953,29.8643555 27.0509766,24.9691406 27.7792969,22.7648437 C23.8766602,20.924707 24.0861328,17.3765625 24.0861328,17.2637695 Z M20.6991211,7.43466797 C22.3330078,5.49462891 22.1847656,3.72861328 22.1364258,3.09375 C20.6926758,3.17753906 19.0233398,4.07666016 18.0726562,5.18203125 C17.025293,6.36796875 16.4097656,7.83427734 16.5418945,9.4875 C18.1016602,9.60673828 19.5260742,8.80429688 20.6991211,7.43466797 L20.6991211,7.43466797 Z" id="Icon-Shape"></path>
                    </g>
                    <rect id="ViewBox" x="0" y="0" width="33" height="33"></rect>
                </g>
                <text id="Download-on-the" font-family="ArialMT, Arial" font-size="11" font-weight="normal" letter-spacing="0.3" fill="#000000">
                    <tspan x="43" y="15">Download on the</tspan>
                </text>
                <text id="App-Store" font-family="Arial-BoldMT, Arial" font-size="18" font-weight="bold" fill="#000000">
                    <tspan x="43" y="35">App Store</tspan>
                </text>
            </g>
        </g>
    </g>
</svg>