<?xml version="1.0" encoding="UTF-8"?>
<svg width="18px" height="18px" viewBox="0 0 18 18" version="1.1" xmlns="http://www.w3.org/2000/svg" xmlns:xlink="http://www.w3.org/1999/xlink">
    <!-- Generator: Sketch 61.2 (89653) - https://sketch.com -->
    <title>share</title>
    <desc>Created with Sketch.</desc>
    <g id="Page-1" stroke="none" stroke-width="1" fill="none" fill-rule="evenodd">
        <g id="Artboard" transform="translate(-1223.000000, -28.000000)">
            <g id="share" transform="translate(1221.000000, 26.000000)">
                <g id="Icon" transform="translate(2.000000, 2.000000)" stroke="#FFFFFF" stroke-linecap="round" stroke-linejoin="round" stroke-width="1.5">
                    <g id="Icon-Group" transform="translate(0.750000, 0.750000)">
                        <path d="M5.21033333,9.48016667 C5.3955,9.10983333 5.5,8.69183333 5.5,8.25 C5.5,7.80816667 5.3955,7.39016667 5.21033333,7.01983333 M5.21033333,9.48016667 C4.63984045,10.6207707 3.36000724,11.2194839 2.11882354,10.9263924 C0.877639837,10.633301 0.000823225157,9.5253194 0.000823225157,8.25 C0.000823225157,6.9746806 0.877639837,5.86669902 2.11882354,5.57360758 C3.36000724,5.28051614 4.63984045,5.87922935 5.21033333,7.01983333 M5.21033333,9.48016667 L11.2896667,12.5198333 M5.21033333,7.01983333 L11.2896667,3.98016667 M11.2896667,3.98016667 C11.7291629,4.85899536 12.6041237,5.43659812 13.5849598,5.49539757 C14.5657958,5.55419703 15.5034949,5.08526014 16.0448348,4.26523091 C16.5861746,3.44520167 16.6489129,2.39866203 16.2094167,1.51983333 C15.5300144,0.161281909 13.8779265,-0.389277246 12.519375,0.290125037 C11.1608236,0.969527319 10.6102644,2.62161522 11.2896667,3.98016667 L11.2896667,3.98016667 Z M11.2896667,12.5198333 C10.6102644,13.8786379 11.1610288,15.530931 12.5198333,16.2103333 C13.8786379,16.8897356 15.530931,16.3389712 16.2103333,14.9801667 C16.8897356,13.6213621 16.3389712,11.969069 14.9801667,11.2896667 C13.6213621,10.6102644 11.969069,11.1610288 11.2896667,12.5198333 L11.2896667,12.5198333 Z" id="Icon-Shape"></path>
                    </g>
                </g>
                <rect id="ViewBox" fill-rule="nonzero" x="0" y="0" width="22" height="22"></rect>
            </g>
        </g>
    </g>
</svg>